<svg width="95" height="73" viewBox="0 0 95 73" fill="none" xmlns="http://www.w3.org/2000/svg">
<g clip-path="url(#clip0_2522_306)">
<path d="M91.1704 28.937C91.1704 41.601 81.6316 52.3642 68.3463 56.2873C62.9987 57.8575 57.2776 58.2706 51.6965 57.4896C51.1668 57.4159 50.6409 57.3312 50.1188 57.2355C49.4113 57.1073 48.7122 56.96 48.0215 56.7934C33.7583 53.3701 23.3041 42.1946 23.3041 28.937C23.3041 12.9555 38.4964 0 57.2373 0C75.9781 0 91.1704 12.9554 91.1704 28.937Z" fill="#E6E6E6"/>
<path d="M35.9837 37.8684C35.924 37.8957 35.8794 37.9421 35.8597 37.9973C35.84 38.0526 35.8468 38.1123 35.8787 38.1633L48.6366 58.5409C48.6686 58.5918 48.723 58.6299 48.7878 58.6467C48.8526 58.6635 48.9226 58.6576 48.9824 58.6305L67.0171 50.4195C67.0768 50.3922 67.1214 50.3459 67.1411 50.2906C67.1608 50.2353 67.154 50.1756 67.1221 50.1246L54.3642 29.7471C54.3322 29.6961 54.2778 29.6581 54.213 29.6413C54.1482 29.6245 54.0782 29.6303 54.0184 29.6574L35.9837 37.8684Z" fill="#3F3D56"/>
<path d="M37.6601 38.4636L49.335 57.1108L65.3407 49.8237L53.6658 31.1763L37.6601 38.4636ZM36.6459 38.9253L36.6481 38.9243L36.6456 38.9254L36.6459 38.9253Z" fill="white"/>
<path d="M41.6957 40.5136C41.4471 40.6268 41.3941 40.9573 41.5775 41.2502C41.7609 41.5431 42.1124 41.6895 42.3611 41.5763L54.0836 36.2391C54.3322 36.1259 54.3852 35.7954 54.2018 35.5025C54.0184 35.2096 53.6669 35.0633 53.4182 35.1765L41.6957 40.5136Z" fill="#4B93E7"/>
<path d="M43.14 42.8207C42.8914 42.934 42.8384 43.2644 43.0218 43.5574C43.2052 43.8503 43.5567 43.9966 43.8054 43.8834L55.5279 38.5463C55.7765 38.4331 55.8295 38.1026 55.6461 37.8097C55.4627 37.5168 55.1112 37.3704 54.8625 37.4836L43.14 42.8207Z" fill="#4B93E7"/>
<path d="M44.5843 45.1274C44.3357 45.2406 44.2827 45.5711 44.4661 45.864C44.6495 46.1569 45.001 46.3033 45.2497 46.1901L56.9722 40.8529C57.2208 40.7397 57.2738 40.4092 57.0904 40.1163C56.907 39.8234 56.5555 39.677 56.3069 39.7903L44.5843 45.1274Z" fill="#4B93E7"/>
<path d="M46.0286 47.4345C45.78 47.5477 45.7271 47.8782 45.9104 48.1711C46.0938 48.464 46.4453 48.6104 46.694 48.4972L58.4165 43.16C58.6651 43.0468 58.7181 42.7163 58.5347 42.4234C58.3513 42.1305 57.9998 41.9842 57.7512 42.0974L46.0286 47.4345Z" fill="#4B93E7"/>
<path d="M47.4729 49.7411C47.2243 49.8544 47.1713 50.1848 47.3547 50.4777C47.5381 50.7707 47.8896 50.917 48.1382 50.8038L59.8608 45.4667C60.1094 45.3535 60.1623 45.023 59.979 44.7301C59.7956 44.4372 59.4441 44.2908 59.1954 44.404L47.4729 49.7411Z" fill="#4B93E7"/>
<path d="M49.7493 29.0646L60.3713 29.6177L63.346 22.0527L54.0294 20.374L49.7493 29.0646Z" fill="#082777"/>
<path d="M57.4098 27.1517C59.7561 27.1517 61.658 25.5297 61.658 23.529C61.658 21.5282 59.7561 19.9062 57.4098 19.9062C55.0636 19.9062 53.1617 21.5282 53.1617 23.529C53.1617 25.5297 55.0636 27.1517 57.4098 27.1517Z" fill="#FFB8B8"/>
<path d="M68.3188 56.0056L68.3463 56.2874C62.9987 57.8576 57.2776 58.2708 51.6965 57.4898L50.1188 57.2356L51.6201 54.3964L52.6043 52.5353L52.25 46.0965L52.2124 45.4302L52.1661 44.5802L52.8072 44.577L57.365 44.5536L61.7087 44.5301L62.3711 44.5269C66.5244 48.8834 69.9516 52.4242 68.3188 56.0056Z" fill="#082777"/>
<path d="M62.3084 44.4732L52.1661 45.4342L51.7904 39.4546C50.6001 36.8659 51.3859 34.5552 53.8562 32.4816L54.3584 30.7864C54.4902 30.3415 54.7626 29.9359 55.1458 29.6137C55.5291 29.2916 56.0087 29.0652 56.5323 28.9592C58.1925 28.1473 60.0731 27.7603 62.1832 27.8158C63.0259 28.0964 63.7405 28.6007 64.2213 29.2542C64.7021 29.9077 64.9237 30.6757 64.8534 31.4448C64.4169 36.1441 63.6335 40.5431 62.3084 44.4732Z" fill="#4B93E7"/>
<path d="M54.1961 19.2484C54.1961 19.2484 51.9995 19.932 51.9431 22.4172C51.94 22.8354 52.0055 23.252 52.1376 23.6547C52.28 24.1115 52.3943 25.1025 51.4365 26.4236C50.8106 27.2811 50.2448 28.1694 49.7419 29.0839L52.2153 29.2874L52.6243 25.7909C52.8226 24.0958 53.3124 22.4347 54.0782 20.8613L54.0942 20.8284C54.0942 20.8284 55.2289 22.5102 57.3855 22.4584L56.5936 21.8201C56.5936 21.8201 59.2947 22.6876 60.7635 22.8617C60.9311 22.8816 61.0892 22.9401 61.2207 23.031C61.3522 23.1218 61.4521 23.2416 61.5098 23.3773C61.5674 23.513 61.5805 23.6595 61.5477 23.8011C61.5149 23.9427 61.4375 24.0739 61.3237 24.1808C61.315 24.1888 61.3062 24.1969 61.2973 24.205C60.399 25.0154 58.6113 26.8988 59.7373 28.3179C60.8633 29.737 59.9521 30.1533 59.9521 30.1533L61.6205 29.3244L62.3777 28.9118L62.3951 29.4372L66.3872 28.947C66.3872 28.947 67.4611 28.7897 65.0767 26.612C65.0767 26.612 64.4379 25.7595 64.6802 25.0051C64.8807 24.4314 64.9184 23.8253 64.79 23.2367C64.1911 20.7865 61.9984 15.9394 54.1961 19.2484Z" fill="#082777"/>
<path d="M57.2373 72.7332C65.6741 72.7332 72.5134 72.3985 72.5134 71.9857C72.5134 71.5729 65.6741 71.2383 57.2373 71.2383C48.8004 71.2383 41.9611 71.5729 41.9611 71.9857C41.9611 72.3985 48.8004 72.7332 57.2373 72.7332Z" fill="#E6E6E6"/>
<path d="M0.0929821 34.4396C0.0609104 34.447 0.0335526 34.4648 0.0169125 34.4893C0.00027229 34.5138 -0.00429171 34.5429 0.00422399 34.5703L3.42135 45.5073C3.42993 45.5346 3.45088 45.558 3.47961 45.5722C3.50834 45.5864 3.54249 45.5902 3.57458 45.583L13.2541 43.3837C13.2862 43.3764 13.3135 43.3586 13.3302 43.3341C13.3468 43.3096 13.3514 43.2804 13.3428 43.2531L9.92572 32.3161C9.91714 32.2887 9.89619 32.2654 9.86746 32.2512C9.83873 32.237 9.80457 32.2331 9.77249 32.2404L0.0929821 34.4396Z" fill="#F2F2F2"/>
<path d="M2.47149 36.2458C2.33803 36.2762 2.26948 36.4288 2.3186 36.586C2.36771 36.7432 2.51623 36.8465 2.64968 36.8162L8.94136 35.3867C9.07482 35.3563 9.14337 35.2037 9.09425 35.0465C9.04513 34.8893 8.89662 34.786 8.76316 34.8163L2.47149 36.2458Z" fill="white"/>
<path d="M2.85833 37.4841C2.72487 37.5144 2.65632 37.6671 2.70544 37.8243C2.75456 37.9815 2.90307 38.0848 3.03653 38.0545L9.3282 36.625C9.46166 36.5946 9.53021 36.442 9.48109 36.2848C9.43197 36.1276 9.28346 36.0243 9.15 36.0546L2.85833 37.4841Z" fill="white"/>
<path d="M3.24517 38.7224C3.11171 38.7527 3.04316 38.9053 3.09228 39.0625C3.1414 39.2198 3.28991 39.3231 3.42337 39.2927L9.71504 37.8632C9.8485 37.8329 9.91705 37.6803 9.86793 37.5231C9.81881 37.3659 9.67031 37.2626 9.53685 37.2929L3.24517 38.7224Z" fill="white"/>
<path d="M3.63201 39.9602C3.49855 39.9905 3.43 40.1431 3.47912 40.3003C3.52824 40.4576 3.67675 40.5609 3.81021 40.5305L10.1019 39.101C10.2353 39.0707 10.3039 38.9181 10.2548 38.7609C10.2057 38.6037 10.0571 38.5004 9.92368 38.5307L3.63201 39.9602Z" fill="white"/>
<path d="M4.01888 41.1985C3.88542 41.2288 3.81687 41.3814 3.86599 41.5386C3.91511 41.6958 4.06362 41.7991 4.19708 41.7688L10.4888 40.3393C10.6222 40.309 10.6908 40.1564 10.6416 39.9992C10.5925 39.8419 10.444 39.7386 10.3106 39.769L4.01888 41.1985Z" fill="white"/>
<path d="M4.40572 42.4367C4.27226 42.4671 4.20372 42.6197 4.25283 42.7769C4.30195 42.9341 4.45046 43.0374 4.58392 43.0071L10.8756 41.5776C11.0091 41.5473 11.0776 41.3946 11.0285 41.2374C10.9794 41.0802 10.8309 40.9769 10.6974 41.0072L4.40572 42.4367Z" fill="white"/>
<path d="M24.8297 72.9752C24.8297 72.9889 24.8858 73 24.9549 73H38.2276C38.2967 73 38.3528 72.9889 38.3528 72.9752V70.9959C38.3528 70.9823 38.2967 70.9712 38.2276 70.9712H24.9549C24.8858 70.9712 24.8297 70.9823 24.8297 70.9959V72.9752Z" fill="#F2F2F2"/>
<path d="M27.4887 72.629C27.4887 72.6563 27.644 72.6785 27.8348 72.6785C28.0256 72.6785 28.1809 72.6563 28.1809 72.629V71.3425C28.1809 71.3152 28.0256 71.293 27.8348 71.293C27.644 71.293 27.4887 71.3152 27.4887 71.3425V72.629Z" fill="white"/>
<path d="M28.9913 72.629C28.9913 72.6563 29.1466 72.6785 29.3374 72.6785C29.5282 72.6785 29.6835 72.6563 29.6835 72.629V71.3425C29.6835 71.3152 29.5282 71.293 29.3374 71.293C29.1466 71.293 28.9913 71.3152 28.9913 71.3425V72.629Z" fill="white"/>
<path d="M30.4939 72.629C30.4939 72.6563 30.6492 72.6785 30.8399 72.6785C31.0307 72.6785 31.186 72.6563 31.186 72.629V71.3425C31.186 71.3152 31.0307 71.293 30.8399 71.293C30.6492 71.293 30.4939 71.3152 30.4939 71.3425V72.629Z" fill="white"/>
<path d="M31.9965 72.629C31.9965 72.6563 32.1518 72.6785 32.3425 72.6785C32.5333 72.6785 32.6886 72.6563 32.6886 72.629V71.3425C32.6886 71.3152 32.5333 71.293 32.3425 71.293C32.1518 71.293 31.9965 71.3152 31.9965 71.3425V72.629Z" fill="white"/>
<path d="M33.499 72.629C33.499 72.6563 33.6543 72.6785 33.8451 72.6785C34.0359 72.6785 34.1912 72.6563 34.1912 72.629V71.3425C34.1912 71.3152 34.0359 71.293 33.8451 71.293C33.6543 71.293 33.499 71.3152 33.499 71.3425V72.629Z" fill="white"/>
<path d="M35.0016 72.629C35.0016 72.6563 35.1569 72.6785 35.3477 72.6785C35.5384 72.6785 35.6937 72.6563 35.6937 72.629V71.3425C35.6937 71.3152 35.5384 71.293 35.3477 71.293C35.1569 71.293 35.0016 71.3152 35.0016 71.3425V72.629Z" fill="white"/>
<path d="M0.448033 26.547C0.418763 26.5603 0.396902 26.5831 0.38725 26.6102C0.377598 26.6372 0.380943 26.6665 0.396549 26.6915L6.6477 36.6761C6.66336 36.701 6.69 36.7197 6.72176 36.7279C6.75353 36.7361 6.78783 36.7333 6.81713 36.72L15.6537 32.6968C15.683 32.6834 15.7049 32.6607 15.7145 32.6336C15.7242 32.6065 15.7208 32.5773 15.7052 32.5523L9.45407 22.5677C9.43841 22.5427 9.41177 22.5241 9.38 22.5158C9.34824 22.5076 9.31394 22.5105 9.28464 22.5238L0.448033 26.547Z" fill="#E6E6E6"/>
<path d="M1.26944 26.8387L6.98988 35.9754L14.8324 32.4049L9.11193 23.2681L1.26944 26.8387ZM0.772492 27.0649L0.773592 27.0644L0.772369 27.065L0.772492 27.0649Z" fill="white"/>
<path d="M3.24682 27.8433C3.12498 27.8988 3.09904 28.0607 3.18889 28.2042C3.27875 28.3478 3.45097 28.4195 3.5728 28.364L9.3166 25.7489C9.43844 25.6934 9.46438 25.5315 9.37452 25.388C9.28466 25.2445 9.11245 25.1728 8.99061 25.2282L3.24682 27.8433Z" fill="#4B93E7"/>
<path d="M3.95449 28.9737C3.83265 29.0292 3.80671 29.1911 3.89657 29.3346C3.98642 29.4781 4.15864 29.5499 4.28047 29.4944L10.0243 26.8793C10.1461 26.8238 10.172 26.6619 10.0822 26.5184C9.99233 26.3748 9.82012 26.3031 9.69828 26.3586L3.95449 28.9737Z" fill="#4B93E7"/>
<path d="M4.66216 30.1041C4.54032 30.1595 4.51438 30.3215 4.60424 30.465C4.6941 30.6085 4.86632 30.6802 4.98815 30.6248L10.7319 28.0097C10.8538 27.9542 10.8797 27.7923 10.7899 27.6487C10.7 27.5052 10.5278 27.4335 10.406 27.489L4.66216 30.1041Z" fill="#4B93E7"/>
<path d="M5.36983 31.2344C5.248 31.2899 5.22206 31.4518 5.31191 31.5954C5.40177 31.7389 5.57398 31.8106 5.69582 31.7551L11.4396 29.14C11.5615 29.0846 11.5874 28.9226 11.4975 28.7791C11.4077 28.6356 11.2355 28.5639 11.1136 28.6194L5.36983 31.2344Z" fill="#4B93E7"/>
<path d="M6.0775 32.3648C5.95567 32.4203 5.92973 32.5822 6.01958 32.7257C6.10944 32.8693 6.28166 32.941 6.40349 32.8855L12.1473 30.2704C12.2691 30.2149 12.2951 30.053 12.2052 29.9095C12.1154 29.766 11.9431 29.6943 11.8213 29.7497L6.0775 32.3648Z" fill="#4B93E7"/>
<path d="M6.78518 33.4952C6.66334 33.5507 6.6374 33.7126 6.72726 33.8561C6.81711 33.9996 6.98933 34.0713 7.11117 34.0159L12.855 31.4008C12.9768 31.3453 13.0027 31.1834 12.9129 31.0399C12.823 30.8963 12.6508 30.8246 12.529 30.8801L6.78518 33.4952Z" fill="#4B93E7"/>
<path d="M86.3146 52.0627C86.286 52.0483 86.2519 52.0442 86.2197 52.0512C86.1876 52.0583 86.16 52.0759 86.1431 52.1003L79.3906 61.8445C79.3737 61.8689 79.3689 61.898 79.3771 61.9255C79.3854 61.9529 79.4061 61.9764 79.4347 61.9908L88.0586 66.3367C88.0872 66.3511 88.1213 66.3552 88.1535 66.3481C88.1856 66.3411 88.2132 66.3235 88.2301 66.2991L94.9826 56.5548C94.9995 56.5304 95.0043 56.5013 94.996 56.4739C94.9878 56.4465 94.9671 56.423 94.9385 56.4086L86.3146 52.0627Z" fill="#E6E6E6"/>
<path d="M86.4493 52.8128L80.2702 61.7298L87.9238 65.5868L94.103 56.6698L86.4493 52.8128ZM85.9643 52.5684L85.9654 52.569L85.9642 52.5684L85.9643 52.5684Z" fill="white"/>
<path d="M86.471 54.7752C86.3521 54.7153 86.1764 54.7805 86.0793 54.9206C85.9822 55.0607 85.9999 55.2234 86.1188 55.2833L91.7244 58.1082C91.8433 58.1681 92.019 58.1028 92.1161 57.9627C92.2131 57.8227 92.1954 57.6599 92.0765 57.6L86.471 54.7752Z" fill="#4B93E7"/>
<path d="M85.7065 55.8782C85.5876 55.8183 85.4119 55.8836 85.3149 56.0236C85.2178 56.1637 85.2355 56.3264 85.3544 56.3864L90.9599 59.2112C91.0789 59.2711 91.2546 59.2058 91.3516 59.0658C91.4487 58.9257 91.431 58.763 91.3121 58.703L85.7065 55.8782Z" fill="#4B93E7"/>
<path d="M84.9421 56.9817C84.8232 56.9218 84.6475 56.9871 84.5504 57.1272C84.4533 57.2672 84.471 57.43 84.5899 57.4899L90.1955 60.3147C90.3144 60.3746 90.4901 60.3094 90.5872 60.1693C90.6842 60.0292 90.6665 59.8665 90.5476 59.8066L84.9421 56.9817Z" fill="#4B93E7"/>
<path d="M84.1777 58.0848C84.0587 58.0248 83.8831 58.0901 83.786 58.2302C83.6889 58.3703 83.7066 58.533 83.8255 58.5929L89.4311 61.4177C89.55 61.4777 89.7257 61.4124 89.8227 61.2723C89.9198 61.1322 89.9021 60.9695 89.7832 60.9096L84.1777 58.0848Z" fill="#4B93E7"/>
<path d="M83.4132 59.1878C83.2943 59.1279 83.1186 59.1931 83.0215 59.3332C82.9245 59.4733 82.9422 59.636 83.0611 59.6959L88.6666 62.5208C88.7855 62.5807 88.9612 62.5154 89.0583 62.3753C89.1554 62.2353 89.1377 62.0725 89.0188 62.0126L83.4132 59.1878Z" fill="#4B93E7"/>
<path d="M82.6488 60.2908C82.5299 60.2309 82.3542 60.2962 82.2571 60.4362C82.16 60.5763 82.1777 60.739 82.2966 60.799L87.9022 63.6238C88.0211 63.6837 88.1968 63.6184 88.2938 63.4784C88.3909 63.3383 88.3732 63.1756 88.2543 63.1156L82.6488 60.2908Z" fill="#4B93E7"/>
<path d="M55.1712 34.3291L55.041 35.0168L53.6686 42.2307L52.8072 44.5766L52.5042 45.402L52.25 46.0961L49.1609 54.5103L48.3134 56.2083C47.8484 56.355 47.4487 56.6219 47.1703 56.9718C46.8919 57.3217 46.7487 57.737 46.7607 58.1597C46.7727 58.5824 46.9394 58.9914 47.2373 59.3293C47.5352 59.6673 47.9496 59.9174 48.4224 60.0447C48.8952 60.172 49.4029 60.1701 49.8744 60.0393C50.3459 59.9085 50.7576 59.6553 51.0521 59.3151C51.3465 58.9749 51.5089 58.5647 51.5166 58.142C51.5243 57.7192 51.3768 57.305 51.0948 56.9572L57.1409 44.9632L57.365 44.5532L58.0512 43.2985L59.3471 34.9602L59.4285 34.4359L55.1712 34.3291Z" fill="#FFB8B8"/>
<path d="M60.1798 35.1838C58.212 34.5807 56.3242 34.5166 54.5452 35.1838L55.1258 30.8918C55.1045 30.3558 55.3307 29.8341 55.7558 29.4389C56.1808 29.0436 56.7708 28.8064 57.3988 28.7782C58.0345 28.7497 58.6575 28.9377 59.1307 29.3009C59.604 29.6641 59.8886 30.1727 59.9221 30.7148L59.9225 30.7219L60.1798 35.1838Z" fill="#4B93E7"/>
</g>
<defs>
<clipPath id="clip0_2522_306">
<rect width="95" height="73" fill="white"/>
</clipPath>
</defs>
</svg>
