<svg width="95" height="73" viewBox="0 0 95 73" fill="none" xmlns="http://www.w3.org/2000/svg">
<g clip-path="url(#clip0_2522_364)">
<path d="M48.5937 42.5421L27.8852 42.8534C27.5583 42.8589 27.2334 42.8093 26.929 42.7073C26.6246 42.6053 26.3467 42.453 26.1112 42.2592C25.8758 42.0653 25.6874 41.8336 25.5568 41.5774C25.4262 41.3212 25.3561 41.0455 25.3503 40.7661C25.3446 40.4866 25.4034 40.209 25.5233 39.949C25.6433 39.6891 25.822 39.4519 26.0493 39.251C26.2767 39.0502 26.5481 38.8896 26.8481 38.7786C27.1482 38.6675 27.4709 38.6082 27.7978 38.6039L48.5064 38.2926C48.8151 38.288 49.1133 38.3884 49.3355 38.5717C49.5576 38.7551 49.6855 39.0063 49.6909 39.2702L49.7373 41.5296C49.7425 41.782 49.6353 42.0266 49.4374 42.214C49.2396 42.4013 48.9658 42.5174 48.6715 42.5387C48.6458 42.5406 48.6198 42.5417 48.5937 42.5421Z" fill="#4B93E7"/>
<path d="M44.5945 43.1193L27.6048 43.7823C27.4521 43.7882 27.2995 43.7684 27.1557 43.724C27.0119 43.6796 26.8798 43.6113 26.7669 43.5232C26.6539 43.4351 26.5624 43.3289 26.4975 43.2106C26.4326 43.0922 26.3956 42.9641 26.3887 42.8336L26.2089 39.4667C26.1948 39.2031 26.3038 38.9454 26.512 38.7505C26.7201 38.5555 27.0104 38.4392 27.3188 38.4272L44.3085 37.7642C44.4612 37.7583 44.6138 37.7781 44.7576 37.8225C44.9014 37.8669 45.0335 37.9352 45.1464 38.0233C45.2594 38.1114 45.3509 38.2176 45.4158 38.3359C45.4807 38.4543 45.5177 38.5824 45.5246 38.7129L45.7044 42.0798C45.7178 42.3368 45.6143 42.5884 45.4156 42.7817C45.2169 42.9751 44.9384 43.0952 44.6384 43.1169C44.6239 43.118 44.6092 43.1188 44.5945 43.1193Z" fill="#2F2E41"/>
<path d="M15.8636 72.0049V53.171C15.864 52.9071 15.9868 52.6542 16.205 52.4676C16.4233 52.281 16.7192 52.1761 17.0279 52.1758H19.6716C19.9802 52.1761 20.2762 52.281 20.4944 52.4676C20.7127 52.6542 20.8355 52.9071 20.8358 53.171V72.0049C20.8355 72.2688 20.7127 72.5217 20.4944 72.7083C20.2762 72.8949 19.9802 72.9998 19.6716 73.0001H17.0279C16.7192 72.9998 16.4233 72.8949 16.205 72.7083C15.9868 72.5217 15.864 72.2688 15.8636 72.0049Z" fill="#4B93E7"/>
<path d="M22.8012 72.0049V53.171C22.8016 52.9071 22.9243 52.6542 23.1426 52.4676C23.3609 52.281 23.6568 52.1761 23.9655 52.1758H26.6091C26.9178 52.1761 27.2137 52.281 27.432 52.4676C27.6503 52.6542 27.773 52.9071 27.7734 53.171V72.0049C27.773 72.2688 27.6503 72.5217 27.432 72.7083C27.2137 72.8949 26.9178 72.9998 26.6091 73.0001H23.9655C23.6568 72.9998 23.3609 72.8949 23.1426 72.7083C22.9243 72.5217 22.8016 72.2688 22.8012 72.0049Z" fill="#4B93E7"/>
<path d="M23.4916 32.5204C28.5367 32.5204 32.6265 29.0245 32.6265 24.7121C32.6265 20.3997 28.5367 16.9038 23.4916 16.9038C18.4466 16.9038 14.3568 20.3997 14.3568 24.7121C14.3568 29.0245 18.4466 32.5204 23.4916 32.5204Z" fill="#4B93E7"/>
<path d="M28.4362 27.3779C28.7301 27.2954 28.9998 27.16 29.2274 26.9809C29.3781 26.8531 29.4944 26.6986 29.5679 26.5283C29.6415 26.358 29.6706 26.176 29.6532 25.9951C29.6437 25.8662 29.5994 25.7409 29.5238 25.6291C29.4482 25.5172 29.3434 25.4218 29.2175 25.3504C28.8908 25.1712 28.4539 25.1707 28.0091 25.3383L28.0259 22.29L27.6677 22.2886L27.6479 25.8721L27.9239 25.7237C28.244 25.5519 28.7011 25.431 29.0241 25.6081C29.1039 25.6549 29.17 25.7168 29.2173 25.789C29.2645 25.8612 29.2917 25.9418 29.2966 26.0244C29.3087 26.1592 29.2866 26.2946 29.232 26.4214C29.1774 26.5482 29.0914 26.6635 28.98 26.7594C28.5844 27.0824 28.0073 27.1834 27.3492 27.2737L27.406 27.576C27.7556 27.5364 28.1004 27.4701 28.4362 27.3779Z" fill="#2F2E41"/>
<path d="M31.7187 22.1361L29.8059 22.3521L29.8528 22.6556L31.7656 22.4397L31.7187 22.1361Z" fill="#2F2E41"/>
<path d="M25.6812 22.8178L23.7685 23.0337L23.8154 23.3372L25.7281 23.1213L25.6812 22.8178Z" fill="#2F2E41"/>
<path d="M4.1115 24.0955L17.227 37.7977C17.4339 38.0137 17.589 38.2624 17.6834 38.5296C17.7778 38.7968 17.8097 39.0773 17.7773 39.355C17.7449 39.6328 17.6488 39.9024 17.4944 40.1484C17.3401 40.3944 17.1306 40.612 16.8778 40.7887C16.6251 40.9655 16.3341 41.0979 16.0214 41.1785C15.7088 41.2591 15.3806 41.2863 15.0557 41.2585C14.7308 41.2306 14.4154 41.1483 14.1277 41.0163C13.84 40.8843 13.5855 40.7051 13.3788 40.489L0.263312 26.7868C0.166484 26.6856 0.0939097 26.5692 0.0497375 26.4441C0.00556519 26.319 -0.00934328 26.1876 0.00586557 26.0576C0.0210744 25.9276 0.0661001 25.8013 0.138374 25.6862C0.210648 25.571 0.308754 25.4692 0.427089 25.3864L2.47314 23.9554C2.71214 23.7883 3.01901 23.7091 3.32626 23.7354C3.6335 23.7617 3.91596 23.8912 4.1115 24.0955Z" fill="#4B93E7"/>
<path d="M8.48566 27.1536L19.2554 38.4051C19.3522 38.5062 19.4248 38.6227 19.469 38.7478C19.5131 38.8729 19.528 39.0042 19.5128 39.1343C19.4976 39.2643 19.4526 39.3905 19.3803 39.5057C19.308 39.6208 19.2099 39.7227 19.0916 39.8055L15.5968 42.2496C15.4785 42.3324 15.3423 42.3944 15.1959 42.4321C15.0495 42.4699 14.8959 42.4826 14.7437 42.4696C14.5916 42.4566 14.444 42.4181 14.3092 42.3564C14.1745 42.2946 14.0553 42.2107 13.9585 42.1095L3.18876 30.8581C2.99357 30.6537 2.9012 30.3915 2.9319 30.129C2.96261 29.8664 3.11388 29.625 3.35254 29.4577L6.84735 27.0135C7.08634 26.8464 7.3932 26.7673 7.70044 26.7935C8.00767 26.8198 8.29013 26.9493 8.48566 27.1536Z" fill="#2F2E41"/>
<path d="M83.153 13.4753C83.0213 13.208 82.8008 12.9796 82.5188 12.8183C82.2368 12.657 81.9057 12.5699 81.5664 12.5679H49.8969C49.4416 12.5681 49.0051 12.7228 48.6832 12.9979C48.3613 13.2731 48.1804 13.6462 48.1801 14.0353V48.2822C48.1804 48.6713 48.3613 49.0445 48.6832 49.3196C49.0051 49.5948 49.4416 49.7494 49.8969 49.7496H81.5675C82.0226 49.7491 82.4589 49.5944 82.7808 49.3193C83.1026 49.0442 83.2836 48.6712 83.2843 48.2822V14.0353C83.285 13.8431 83.2408 13.6527 83.1541 13.4753H83.153ZM82.9019 48.2822C82.9014 48.5849 82.7606 48.875 82.5102 49.089C82.2599 49.303 81.9204 49.4234 81.5664 49.4238H49.8969C49.5427 49.4237 49.2031 49.3035 48.9527 49.0894C48.7022 48.8754 48.5615 48.5851 48.5614 48.2824V14.0355C48.5618 13.7329 48.7027 13.4428 48.953 13.2288C49.2034 13.0148 49.5428 12.8944 49.8969 12.8939H81.5675C81.8342 12.8948 82.0946 12.9636 82.3154 13.0915C82.5362 13.2194 82.7074 13.4006 82.8071 13.6121C82.8265 13.6542 82.8433 13.6972 82.8573 13.7408C82.8876 13.8369 82.903 13.936 82.903 14.0355L82.9019 48.2822Z" fill="#3F3D56"/>
<path d="M76.544 20.6533H67.0047C66.9043 20.6535 66.805 20.6367 66.7122 20.604C66.6195 20.5712 66.5352 20.5232 66.4642 20.4626C66.3933 20.402 66.3369 20.3301 66.2985 20.2509C66.2601 20.1716 66.2403 20.0867 66.2403 20.001C66.2403 19.9152 66.2601 19.8303 66.2985 19.7511C66.3369 19.6719 66.3933 19.5999 66.4642 19.5393C66.5352 19.4788 66.6195 19.4307 66.7122 19.398C66.805 19.3653 66.9043 19.3485 67.0047 19.3486H76.544C76.6443 19.3485 76.7437 19.3653 76.8364 19.398C76.9291 19.4307 77.0134 19.4788 77.0844 19.5393C77.1554 19.5999 77.2117 19.6719 77.2501 19.7511C77.2886 19.8303 77.3083 19.9152 77.3083 20.001C77.3083 20.0867 77.2886 20.1716 77.2501 20.2509C77.2117 20.3301 77.1554 20.402 77.0844 20.4626C77.0134 20.5232 76.9291 20.5712 76.8364 20.604C76.7437 20.6367 76.6443 20.6535 76.544 20.6533Z" fill="#3F3D56"/>
<path d="M76.544 24.0781H67.0047C66.9043 24.0783 66.805 24.0615 66.7122 24.0288C66.6195 23.996 66.5352 23.948 66.4642 23.8874C66.3933 23.8268 66.3369 23.7549 66.2985 23.6757C66.2601 23.5965 66.2403 23.5115 66.2403 23.4258C66.2403 23.34 66.2601 23.2551 66.2985 23.1759C66.3369 23.0967 66.3933 23.0247 66.4642 22.9642C66.5352 22.9036 66.6195 22.8555 66.7122 22.8228C66.805 22.7901 66.9043 22.7733 67.0047 22.7734H76.544C76.6443 22.7733 76.7437 22.7901 76.8364 22.8228C76.9291 22.8555 77.0134 22.9036 77.0844 22.9642C77.1554 23.0247 77.2117 23.0967 77.2501 23.1759C77.2886 23.2551 77.3083 23.34 77.3083 23.4258C77.3083 23.5115 77.2886 23.5965 77.2501 23.6757C77.2117 23.7549 77.1554 23.8268 77.0844 23.8874C77.0134 23.948 76.9291 23.996 76.8364 24.0288C76.7437 24.0615 76.6443 24.0783 76.544 24.0781Z" fill="#3F3D56"/>
<path d="M62.1101 26.0282H55.1388C54.9112 26.028 54.6929 25.9506 54.532 25.813C54.371 25.6754 54.2805 25.4888 54.2802 25.2943V18.2622C54.2805 18.0677 54.371 17.8811 54.532 17.7435C54.6929 17.6059 54.9112 17.5285 55.1388 17.5283H62.1101C62.3378 17.5285 62.556 17.6059 62.717 17.7435C62.8779 17.8811 62.9685 18.0677 62.9687 18.2622V25.2943C62.9685 25.4888 62.8779 25.6754 62.717 25.813C62.556 25.9506 62.3378 26.028 62.1101 26.0282Z" fill="#4B93E7"/>
<path d="M76.4778 31.0908H54.919C54.7166 31.0908 54.5225 31.0221 54.3794 30.8998C54.2362 30.7774 54.1558 30.6115 54.1558 30.4385C54.1558 30.2655 54.2362 30.0995 54.3794 29.9772C54.5225 29.8549 54.7166 29.7861 54.919 29.7861H76.4778C76.6802 29.7861 76.8743 29.8549 77.0174 29.9772C77.1606 30.0995 77.241 30.2655 77.241 30.4385C77.241 30.6115 77.1606 30.7774 77.0174 30.8998C76.8743 31.0221 76.6802 31.0908 76.4778 31.0908Z" fill="#CCCCCC"/>
<path d="M76.4778 34.5152H54.919C54.7168 34.5149 54.523 34.446 54.3801 34.3237C54.2372 34.2014 54.157 34.0356 54.157 33.8628C54.157 33.69 54.2372 33.5242 54.3801 33.4019C54.523 33.2796 54.7168 33.2107 54.919 33.2105H76.4778C76.5781 33.2103 76.6775 33.2271 76.7702 33.2598C76.8629 33.2925 76.9472 33.3406 77.0182 33.4012C77.0892 33.4618 77.1455 33.5337 77.1839 33.6129C77.2224 33.6921 77.2421 33.777 77.2421 33.8628C77.2421 33.9486 77.2224 34.0335 77.1839 34.1127C77.1455 34.1919 77.0892 34.2638 77.0182 34.3244C76.9472 34.385 76.8629 34.4331 76.7702 34.4658C76.6775 34.4985 76.5781 34.5153 76.4778 34.5152Z" fill="#CCCCCC"/>
<path d="M76.4778 37.94H54.919C54.7168 37.9397 54.523 37.8708 54.3801 37.7485C54.2372 37.6262 54.157 37.4604 54.157 37.2876C54.157 37.1148 54.2372 36.949 54.3801 36.8267C54.523 36.7044 54.7168 36.6355 54.919 36.6353H76.4778C76.5781 36.6351 76.6775 36.6519 76.7702 36.6846C76.8629 36.7173 76.9472 36.7654 77.0182 36.826C77.0892 36.8866 77.1455 36.9585 77.1839 37.0377C77.2224 37.1169 77.2421 37.2018 77.2421 37.2876C77.2421 37.3734 77.2224 37.4583 77.1839 37.5375C77.1455 37.6167 77.0892 37.6887 77.0182 37.7492C76.9472 37.8098 76.8629 37.8579 76.7702 37.8906C76.6775 37.9233 76.5781 37.9401 76.4778 37.94Z" fill="#CCCCCC"/>
<path d="M76.4778 41.3648H54.919C54.7168 41.3645 54.523 41.2956 54.3801 41.1733C54.2372 41.051 54.157 40.8853 54.157 40.7124C54.157 40.5396 54.2372 40.3738 54.3801 40.2515C54.523 40.1292 54.7168 40.0603 54.919 40.0601H76.4778C76.5781 40.0599 76.6775 40.0767 76.7702 40.1094C76.8629 40.1422 76.9472 40.1902 77.0182 40.2508C77.0892 40.3114 77.1455 40.3833 77.1839 40.4625C77.2224 40.5417 77.2421 40.6267 77.2421 40.7124C77.2421 40.7982 77.2224 40.8831 77.1839 40.9623C77.1455 41.0415 77.0892 41.1135 77.0182 41.174C76.9472 41.2346 76.8629 41.2827 76.7702 41.3154C76.6775 41.3481 76.5781 41.3649 76.4778 41.3648Z" fill="#CCCCCC"/>
<path d="M76.4778 44.7896H54.919C54.7168 44.7893 54.523 44.7204 54.3801 44.5981C54.2372 44.4758 54.157 44.3101 54.157 44.1372C54.157 43.9644 54.2372 43.7986 54.3801 43.6763C54.523 43.554 54.7168 43.4851 54.919 43.4849H76.4778C76.5781 43.4847 76.6775 43.5015 76.7702 43.5342C76.8629 43.567 76.9472 43.615 77.0182 43.6756C77.0892 43.7362 77.1455 43.8081 77.1839 43.8873C77.2224 43.9665 77.2421 44.0515 77.2421 44.1372C77.2421 44.223 77.2224 44.3079 77.1839 44.3871C77.1455 44.4663 77.0892 44.5383 77.0182 44.5989C76.9472 44.6594 76.8629 44.7075 76.7702 44.7402C76.6775 44.7729 76.5781 44.7897 76.4778 44.7896Z" fill="#CCCCCC"/>
<path d="M84.0746 18.6778C90.1085 18.6778 95 14.4966 95 9.33888C95 4.18116 90.1085 0 84.0746 0C78.0406 0 73.1492 4.18116 73.1492 9.33888C73.1492 14.4966 78.0406 18.6778 84.0746 18.6778Z" fill="#4B93E7"/>
<path d="M83.8631 15.7671C84.573 15.7671 85.1486 15.2751 85.1486 14.6682C85.1486 14.0613 84.573 13.5693 83.8631 13.5693C83.1531 13.5693 82.5775 14.0613 82.5775 14.6682C82.5775 15.2751 83.1531 15.7671 83.8631 15.7671Z" fill="white"/>
<path d="M83.7254 3.20175C82.7562 3.20996 81.8291 3.54113 81.1413 4.12476C80.4535 4.7084 80.0593 5.49843 80.0426 6.32673C80.0424 6.34259 80.0423 6.45407 80.0423 6.59988C80.0423 6.81367 80.1416 7.0187 80.3185 7.16987C80.4953 7.32105 80.7352 7.40599 80.9853 7.40602C81.2356 7.40597 81.4756 7.32094 81.6525 7.16962C81.8295 7.01831 81.9289 6.81311 81.9288 6.59916V6.59864C81.9287 6.49945 81.9286 6.43081 81.9286 6.42659C81.9286 6.16119 82.0093 5.90035 82.163 5.66972C82.3166 5.4391 82.5379 5.24663 82.8049 5.11125C83.072 4.97588 83.3757 4.90226 83.6861 4.89764C83.9965 4.89302 84.303 4.95755 84.5754 5.0849C84.8479 5.21224 85.0768 5.39801 85.2397 5.62392C85.4027 5.84983 85.494 6.10812 85.5048 6.37336C85.5155 6.6386 85.4453 6.90166 85.301 7.13667C85.1568 7.37168 84.9434 7.57053 84.6819 7.71368L84.6823 7.71402C84.6823 7.71402 83.3401 8.45264 82.9308 9.46589L82.9312 9.46596C82.8592 9.67353 82.8228 9.88891 82.8229 10.1054C82.8229 10.1944 82.8291 10.9731 82.8409 11.6051C82.845 11.8231 82.9493 12.0311 83.1312 12.184C83.3131 12.3369 83.558 12.4226 83.8132 12.4226C83.9409 12.4226 84.0673 12.4011 84.1853 12.3593C84.3033 12.3175 84.4105 12.2563 84.5008 12.1791C84.5911 12.1019 84.6627 12.0103 84.7115 11.9094C84.7604 11.8086 84.7856 11.7005 84.7856 11.5913L84.7855 11.5862C84.7814 11.0074 84.7792 10.3335 84.7792 10.2846C84.7792 9.6624 85.4814 9.0425 86.0581 8.63824C86.7258 8.17605 87.195 7.53749 87.3922 6.82274C87.4347 6.67542 87.4581 6.52454 87.4621 6.37284C87.4621 5.9564 87.3661 5.54403 87.1797 5.15928C86.9932 4.77454 86.72 4.42495 86.3755 4.13048C86.031 3.83601 85.622 3.60242 85.1719 3.44305C84.7218 3.28369 84.2394 3.20166 83.7522 3.20166C83.7432 3.20166 83.7343 3.20169 83.7254 3.20175Z" fill="white"/>
<path d="M21.2016 21.2575C22.8371 20.3384 24.8926 20.7519 26.7104 20.8719C28.3529 20.9804 30.2997 20.8735 31.455 19.7264C32.6569 18.5331 32.5564 16.7612 31.5614 15.4989C30.5819 14.2565 28.9561 13.472 27.2361 13.2651C26.2831 13.1458 25.3115 13.1973 24.3831 13.4165C23.4547 13.6356 22.5898 14.0176 21.8436 14.538L22.4281 14.745C22.0875 11.9612 19.693 9.44465 16.4803 8.76203C13.2298 8.07137 9.59475 9.25012 7.86055 11.7275C6.15091 14.1698 6.35344 17.5778 8.81429 19.6074C9.99608 20.5821 11.6037 21.0786 13.2351 20.8137C14.7397 20.5693 16.0766 19.6317 16.3582 18.3077C16.6192 17.0804 16.049 15.6863 14.6523 15.1503C14.2702 14.998 13.8525 14.9218 13.4309 14.9276C13.0093 14.9333 12.5947 15.0208 12.2184 15.1836C11.8776 15.3474 11.5897 15.581 11.3803 15.8633C11.171 16.1456 11.0467 16.4679 11.0187 16.8012C10.9927 17.124 11.0696 17.4467 11.2413 17.7351C11.4352 18.0734 12.026 17.777 11.8326 17.4396C11.7077 17.1915 11.6722 16.9173 11.7307 16.6519C11.7891 16.3865 11.9389 16.142 12.1607 15.9497C12.6684 15.4964 13.4698 15.4211 14.1444 15.6064C15.3788 15.9456 15.9238 17.156 15.6912 18.1829C15.4307 19.333 14.282 20.0721 12.974 20.2613C11.5516 20.4671 10.1645 19.9537 9.17714 19.0903C7.10931 17.282 6.93037 14.3694 8.32527 12.2112C9.74034 10.0217 12.7589 8.84607 15.6341 9.21333C18.4772 9.57648 20.8186 11.488 21.5482 13.8449C21.6402 14.1402 21.7055 14.4411 21.7433 14.745C21.7456 14.802 21.767 14.8572 21.8051 14.904C21.8431 14.9509 21.8961 14.9874 21.9577 15.0092C22.0193 15.031 22.0869 15.0372 22.1526 15.0271C22.2182 15.0169 22.279 14.9909 22.3278 14.952C24.7572 13.2273 28.798 13.4123 30.79 15.582C31.7669 16.646 32.0548 18.2983 30.914 19.3672C29.8277 20.3849 28.0238 20.3859 26.5402 20.2745C24.6423 20.1319 22.556 19.7967 20.8559 20.752C20.4891 20.9581 20.8319 21.4652 21.2016 21.2575Z" fill="#2F2E41"/>
<path d="M28.5676 59.7386H14.8702C14.5979 59.7384 14.3367 59.6458 14.1441 59.4811C13.9516 59.3165 13.8432 59.0933 13.8429 58.8605V54.9577C13.8432 54.7249 13.9516 54.5017 14.1441 54.3371C14.3367 54.1724 14.5979 54.0798 14.8702 54.0796H28.5676C28.84 54.0798 29.1011 54.1724 29.2937 54.3371C29.4863 54.5017 29.5946 54.7249 29.5949 54.9577V58.8605C29.5946 59.0933 29.4863 59.3165 29.2937 59.4811C29.1011 59.6458 28.84 59.7384 28.5676 59.7386Z" fill="#2F2E41"/>
<path d="M29.0357 40.4971C28.6068 38.6224 26.9412 37.1378 24.7794 36.5274C25.5601 36.3126 26.0564 35.9947 26.0564 35.6391C26.0564 34.9925 24.4211 34.4683 22.4038 34.4683C20.3865 34.4683 18.7511 34.9925 18.7511 35.6391C18.7511 35.9999 19.261 36.3223 20.0615 36.537C16.7472 37.3817 14.3415 39.8472 14.3415 42.7506C14.3415 42.7506 13.3213 48.341 12.5203 52.8098C12.0078 55.6688 14.8079 58.2241 18.452 58.2241H31.2678C32.1074 58.2241 32.7903 57.6829 32.7903 57.0177C32.7903 57.0177 30.4288 46.5869 29.0357 40.4971Z" fill="#2F2E41"/>
</g>
<defs>
<clipPath id="clip0_2522_364">
<rect width="95" height="73" fill="white"/>
</clipPath>
</defs>
</svg>
