<svg width="96" height="73" viewBox="0 0 96 73" fill="none" xmlns="http://www.w3.org/2000/svg">
<g clip-path="url(#clip0_2522_468)">
<path d="M38.217 52.2837H7.13868C6.86177 52.2834 6.59629 52.1652 6.40048 51.9552C6.20467 51.7451 6.09452 51.4604 6.0942 51.1633V46.281C6.09452 45.984 6.20467 45.6992 6.40048 45.4892C6.59629 45.2791 6.86177 45.161 7.13868 45.1606H38.217C38.4939 45.161 38.7594 45.2791 38.9552 45.4892C39.151 45.6992 39.2611 45.984 39.2615 46.281V51.1633C39.2611 51.4604 39.151 51.7451 38.9552 51.9552C38.7594 52.1652 38.4939 52.2834 38.217 52.2837Z" fill="#F0F0F0"/>
<path d="M35.1974 51.5281H7.84336C7.56645 51.5277 7.30097 51.4096 7.10516 51.1995C6.90935 50.9895 6.79921 50.7047 6.79889 50.4077V47.0374C6.79921 46.7403 6.90935 46.4555 7.10516 46.2455C7.30097 46.0355 7.56645 45.9173 7.84336 45.917H37.5125C37.7894 45.9173 38.0549 46.0355 38.2507 46.2455C38.4465 46.4555 38.5566 46.7403 38.557 47.0374V47.9244C38.5559 48.8798 38.2017 49.7958 37.5718 50.4714C36.942 51.147 36.0881 51.527 35.1974 51.5281Z" fill="white"/>
<path d="M25.7618 48.3748H13.2707C13.1993 48.3748 13.1307 48.3443 13.0802 48.2901C13.0297 48.2359 13.0013 48.1624 13.0013 48.0858C13.0013 48.0092 13.0297 47.9357 13.0802 47.8815C13.1307 47.8273 13.1993 47.7969 13.2707 47.7969H25.7618C25.8333 47.7969 25.9018 47.8273 25.9523 47.8815C26.0028 47.9357 26.0312 48.0092 26.0312 48.0858C26.0312 48.1624 26.0028 48.2359 25.9523 48.2901C25.9018 48.3443 25.8333 48.3748 25.7618 48.3748Z" fill="#E6E6E6"/>
<path d="M32.085 49.5569H13.2707C13.2353 49.557 13.2002 49.5496 13.1674 49.5351C13.1347 49.5206 13.1049 49.4993 13.0798 49.4725C13.0548 49.4457 13.0349 49.4138 13.0213 49.3787C13.0077 49.3436 13.0007 49.3059 13.0007 49.2679C13.0007 49.2299 13.0077 49.1923 13.0213 49.1572C13.0349 49.1221 13.0548 49.0902 13.0798 49.0634C13.1049 49.0366 13.1347 49.0153 13.1674 49.0008C13.2002 48.9863 13.2353 48.9789 13.2707 48.979H32.085C32.1564 48.9792 32.2247 49.0097 32.2751 49.0639C32.3255 49.118 32.3538 49.1914 32.3538 49.2679C32.3538 49.3445 32.3255 49.4179 32.2751 49.472C32.2247 49.5262 32.1564 49.5567 32.085 49.5569Z" fill="#E6E6E6"/>
<path d="M40.2022 39.5745H4.76641C4.48365 39.5742 4.21257 39.4535 4.01262 39.2391C3.81268 39.0246 3.70022 38.7338 3.69989 38.4305V9.37541C3.70022 9.07211 3.81269 8.78133 4.01263 8.56687C4.21257 8.35241 4.48366 8.23178 4.76641 8.23145H40.2022C40.485 8.23178 40.7561 8.35241 40.956 8.56687C41.156 8.78133 41.2684 9.07211 41.2688 9.37541V38.4305C41.2684 38.7338 41.156 39.0246 40.956 39.2391C40.7561 39.4535 40.485 39.5742 40.2022 39.5745Z" fill="white"/>
<path d="M40.2022 39.7166H4.76643C4.44862 39.7162 4.14393 39.5806 3.9192 39.3395C3.69448 39.0985 3.56806 38.7716 3.56769 38.4307V9.37561C3.56806 9.03471 3.69448 8.70789 3.91921 8.46685C4.14394 8.22581 4.44863 8.09022 4.76643 8.08984H40.2022C40.52 8.09022 40.8247 8.22581 41.0494 8.46685C41.2742 8.70789 41.4006 9.03471 41.401 9.37561V38.4307C41.4006 38.7716 41.2742 39.0985 41.0494 39.3395C40.8247 39.5806 40.52 39.7162 40.2022 39.7166ZM4.76643 8.3735C4.51873 8.37379 4.28126 8.47946 4.1061 8.66733C3.93095 8.8552 3.83242 9.10992 3.83212 9.37561V38.4307C3.8324 38.6964 3.93093 38.9512 4.10608 39.1391C4.28124 39.3269 4.51872 39.4326 4.76643 39.4329H40.2022C40.4499 39.4326 40.6874 39.3269 40.8626 39.1391C41.0377 38.9512 41.1362 38.6964 41.1365 38.4307V9.37561C41.1362 9.10991 41.0377 8.85519 40.8625 8.66732C40.6874 8.47946 40.4499 8.37379 40.2022 8.37349L4.76643 8.3735Z" fill="#F0F0F0"/>
<path d="M3.78174 34.0435V38.4306C3.78213 38.7106 3.88599 38.979 4.07056 39.177C4.25514 39.375 4.50536 39.4864 4.76639 39.4868H40.2023C40.4633 39.4864 40.7135 39.375 40.8981 39.177C41.0827 38.979 41.1865 38.7106 41.1869 38.4306V34.0435H3.78174Z" fill="#F0F0F0"/>
<path d="M4.11566 8.41692L3.97311 8.65576L41.1156 34.1632L41.2582 33.9243L4.11566 8.41692Z" fill="#F0F0F0"/>
<path d="M41.2205 8.41642L4.07798 33.9238L4.22054 34.1627L41.363 8.65526L41.2205 8.41642Z" fill="#F0F0F0"/>
<path d="M72.6071 71.0244L70.9689 71.0242L70.1895 64.2466L72.6073 64.2467L72.6071 71.0244Z" fill="#A0616A"/>
<path d="M72.5634 70.4498L70.8155 69.6882L70.7639 69.6655L69.7987 70.4498C69.269 70.4497 68.7598 70.669 68.3772 71.062C67.9946 71.4549 67.7683 71.9911 67.7454 72.5587C67.7427 72.5899 67.7427 72.6226 67.7427 72.6552V72.7275H73.0248V70.4498H72.5634Z" fill="#506DB8"/>
<path d="M68.7706 69.3892L67.2253 69.9723L64.3929 63.8562L66.6736 62.9956L68.7706 69.3892Z" fill="#A0616A"/>
<path d="M68.5518 68.863L66.6673 68.7669L66.6116 68.7638L65.9438 69.8473C65.4442 70.0358 65.0317 70.424 64.7924 70.9308C64.553 71.4377 64.5054 72.0241 64.6595 72.5677C64.6666 72.5981 64.6767 72.6289 64.6868 72.6596L64.7092 72.7279L69.6919 70.8473L68.9871 68.6987L68.5518 68.863Z" fill="#506DB8"/>
<path d="M73.1859 41.8004C74.6846 41.7381 72.8281 54.549 72.8281 54.549C72.8281 54.549 73.3712 65.7964 73.2561 66.3866C73.141 66.9769 73.2416 68.5688 73.2416 68.5688C72.9479 67.9955 69.9186 68.4282 69.9186 68.4282L69.5065 57.0289L67.4025 47.8955L64.4854 54.0178L67.2813 63.4151C67.2813 63.4151 68.4135 64.539 68.2931 64.9831C68.1727 65.4272 65.207 66.4287 64.662 66.4514C64.1171 66.474 64.3631 65.732 64.3367 65.0012C64.3103 64.2705 61.7458 57.4981 60.8438 55.1938C59.9418 52.8895 60.643 49.6403 61.1035 47.2794C61.5639 44.9184 63.9863 40.4876 63.9863 40.4876C66.9931 36.8498 71.6872 41.8628 73.1859 41.8004Z" fill="#506DB8"/>
<path d="M54.9217 31.4473C55.0037 31.6156 55.1192 31.7625 55.26 31.8776C55.4007 31.9928 55.5633 32.0735 55.7362 32.114C55.9092 32.1545 56.0883 32.1539 56.261 32.1121C56.4337 32.0703 56.5958 31.9884 56.7357 31.8722L60.3398 34.3944L60.3288 31.9957L56.908 29.9683C56.7104 29.729 56.4378 29.5758 56.1419 29.5376C55.8459 29.4995 55.5473 29.5791 55.3024 29.7614C55.0576 29.9438 54.8836 30.2161 54.8134 30.5268C54.7432 30.8375 54.7817 31.165 54.9217 31.4473Z" fill="#A0616A"/>
<path d="M72.4076 43.8539C68.6909 43.854 66.6428 43.056 65.5551 42.3434C64.2252 41.4721 63.9976 40.5533 63.9886 40.5145L63.986 40.5034L64.1154 38.7561L64.172 38.6201C64.4329 37.9938 64.4675 37.2858 64.2691 36.6336L64.2651 36.6202L64.2661 36.6062L65.1351 24.5165L68.2105 23.4359L69.1052 22.4716L73.0886 22.4097L73.6436 23.6166L76.7839 24.8847L75.2411 34.7353L74.5015 36.1027L74.7991 37.5923L74.7971 37.6057L73.8268 43.8176L73.7734 43.8201C73.2949 43.8431 72.8396 43.8543 72.4076 43.8539Z" fill="#082777"/>
<path d="M62.7924 36.3114L61.3343 35.3841L61.243 35.2426C61.0573 34.9561 60.8117 34.7203 60.5257 34.5541C60.2397 34.3879 59.9214 34.2959 59.5963 34.2856L59.5793 34.285L57.5711 33.0186L58.4036 30.4028L61.5517 31.4005L63.7464 25.551C63.867 25.2297 64.0682 24.9506 64.3278 24.7447C64.5874 24.5388 64.8951 24.4142 65.2168 24.3847C65.5385 24.3552 65.8615 24.422 66.1499 24.5777C66.4382 24.7334 66.6807 24.9718 66.8503 25.2664C67.0241 25.5744 67.1142 25.9283 67.1105 26.2883V30.1157L67.0973 30.1347L62.7924 36.3114Z" fill="#082777"/>
<path d="M72.5404 41.6043C72.5716 41.4174 72.6406 41.24 72.7426 41.0848C72.8446 40.9296 72.977 40.8003 73.1307 40.7059C73.2843 40.6115 73.4553 40.5544 73.6317 40.5386C73.8082 40.5228 73.9857 40.5487 74.1517 40.6145L76.8828 37.0474L77.5442 39.3387L74.8493 42.3748C74.7278 42.6668 74.5107 42.9008 74.2392 43.0325C73.9676 43.1643 73.6604 43.1846 73.3758 43.0896C73.0912 42.9946 72.849 42.7909 72.695 42.5172C72.5411 42.2435 72.4861 41.9186 72.5404 41.6043Z" fill="#A0616A"/>
<path d="M76.6239 41.1537L74.8104 39.2082L75.9648 36.191L77.6379 33.7405C75.8551 32.8095 74.5168 30.604 73.5471 28.7783L73.5362 28.7578L73.7777 26.7292C73.8341 26.2547 74.0113 25.8061 74.2898 25.4325C74.532 25.1076 74.8431 24.8496 75.1973 24.6801C75.5514 24.5107 75.9382 24.4346 76.3254 24.4583C76.7126 24.4821 77.0888 24.6049 77.4226 24.8165C77.7565 25.0282 78.0382 25.3225 78.2443 25.6749L81.4958 33.4282L81.4592 33.4867L78.8439 38.2689L78.1301 38.7654L76.6239 41.1537Z" fill="#082777"/>
<path d="M73.9569 18.3432C73.8373 19.278 73.3766 20.1237 72.6761 20.6945C71.9756 21.2652 71.0925 21.5143 70.2208 21.3871C69.3491 21.2598 68.5602 20.7666 68.0273 20.0158C67.4945 19.265 67.2613 18.318 67.379 17.3829L67.3854 17.3323C67.5229 16.4097 67.993 15.582 68.6943 15.0278C69.3957 14.4737 70.272 14.2374 71.1342 14.3701C71.9965 14.5027 72.7756 14.9936 73.3034 15.7368C73.8313 16.4801 74.0656 17.4161 73.9559 18.343L73.9569 18.3432Z" fill="#A0616A"/>
<path d="M73.1121 20.1769C73.2825 19.8055 73.4577 19.4068 73.4097 18.996C73.3618 18.5852 72.9863 18.1926 72.6175 18.3146C72.397 18.3876 72.2303 18.6212 71.9998 18.6332C71.6826 18.6496 71.5008 18.2603 71.4021 17.9365L71 16.618C70.6139 16.9408 70.1661 17.1682 69.6886 17.2839C69.2112 17.3997 68.7158 17.4009 68.2378 17.2876C67.8645 17.196 67.4873 17.0175 67.2683 16.6805C67.0494 16.3436 67.0507 15.8208 67.351 15.566C67.4983 15.4411 67.6943 15.3936 67.8351 15.2603C67.9224 15.1776 67.9825 15.0669 68.0067 14.9447C68.0308 14.8224 68.0176 14.6951 67.969 14.5816C67.9204 14.468 67.839 14.3742 67.7369 14.3141C67.6348 14.254 67.5174 14.2308 67.402 14.2479L68.4144 14.1121L68.1127 13.527C68.2274 13.6107 68.3571 13.6678 68.4935 13.6946C68.6299 13.7215 68.77 13.7175 68.9049 13.6829C69.1773 13.6302 69.4338 13.51 69.7003 13.4297C70.3462 13.2528 71.0282 13.3069 71.6428 13.5837C72.2574 13.8605 72.771 14.345 73.1055 14.9635C73.3546 14.8743 73.6231 14.8683 73.8755 14.9465C74.1278 15.0247 74.3521 15.1832 74.5185 15.4012C74.7895 15.7701 74.8632 16.2625 74.8737 16.7321C74.8934 17.658 74.7052 18.5754 74.325 19.4069C74.2159 19.671 74.0592 19.9094 73.864 20.1083C73.7657 20.207 73.6484 20.2813 73.5205 20.3262C73.3926 20.3711 73.257 20.3854 73.1234 20.3681" fill="#506DB8"/>
<path d="M19.3243 16.5137C19.3785 17.343 19.6063 18.1484 19.9907 18.8703C20.8008 20.3964 22.1901 21.5014 23.6864 22.1582C25.5558 22.9787 27.6397 23.004 29.6237 22.821C31.4664 22.6511 33.2903 22.2572 35.1398 22.176C36.5701 22.1269 38.0018 22.1635 39.4283 22.2857C42.1958 22.4964 44.9519 22.8874 47.6902 23.3613C48.4318 23.4881 49.1718 23.6243 49.9103 23.77C49.9801 23.7766 50.0491 23.7903 50.1165 23.811C50.1299 23.8169 50.1514 23.8123 50.1637 23.8206C50.186 23.8357 50.0735 23.7824 50.1417 23.8429C50.2367 23.9498 50.3214 24.0667 50.3945 24.1919L51.4059 25.5879C51.6959 25.9882 51.965 26.4746 52.3399 26.7902C52.6041 27.0092 52.923 27.1394 53.2562 27.1643C53.5893 27.1892 53.9219 27.1077 54.212 26.9301C54.515 26.7248 54.7566 26.4303 54.9081 26.0819C55.1408 25.6242 55.4183 25.1946 55.736 24.8001C56.9391 23.2946 58.6113 22.3685 60.0099 21.1017C60.6874 20.5133 61.2656 19.8043 61.7193 19.0059C62.1063 18.2833 62.347 17.4814 62.4255 16.6523C62.593 14.9687 62.1113 13.2517 61.3013 11.8194C60.4201 10.2807 59.1543 9.03785 57.6475 8.23219C55.9549 7.30719 54.0819 6.85662 52.2044 6.6321C50.211 6.39371 48.1944 6.39445 46.1913 6.41852C43.9433 6.44536 41.6993 6.5514 39.4594 6.73664C37.2165 6.92286 34.9824 7.18756 32.7571 7.53073C30.6219 7.86003 28.4605 8.20325 26.3705 8.78591C24.524 9.30064 22.6828 10.1052 21.304 11.5629C20.0781 12.8591 19.2255 14.6328 19.3243 16.5137Z" fill="#4B93E7"/>
<path d="M29.6453 17.0493C29.5541 17.0449 29.4646 17.0203 29.3827 16.977C29.3007 16.9336 29.228 16.8726 29.169 16.7977C29.1101 16.7228 29.0663 16.6356 29.0404 16.5416C29.0144 16.4476 29.0069 16.3489 29.0183 16.2516L29.0657 15.851C29.0748 15.7742 29.0663 15.6961 29.041 15.6235C29.0157 15.551 28.9744 15.4861 28.9206 15.4345L28.64 15.1656C28.5482 15.0775 28.4811 14.9637 28.4464 14.8369C28.4117 14.7101 28.4108 14.5754 28.4437 14.4481C28.4767 14.3208 28.5422 14.2059 28.6328 14.1164C28.7235 14.027 28.8357 13.9665 28.9567 13.9419L29.3266 13.8665C29.3975 13.8521 29.464 13.8194 29.5205 13.7712C29.577 13.7231 29.6218 13.6609 29.6509 13.5901L29.8027 13.2203C29.8524 13.0994 29.9326 12.9958 30.0343 12.9213C30.136 12.8468 30.2552 12.8042 30.3782 12.7985C30.5013 12.7928 30.6234 12.8241 30.7307 12.8889C30.838 12.9537 30.9263 13.0494 30.9856 13.1653L31.1666 13.5193C31.2013 13.5872 31.2509 13.6451 31.3111 13.6879C31.3713 13.7307 31.4404 13.7572 31.5122 13.765L31.8867 13.8056C32.0092 13.8189 32.1259 13.8687 32.2234 13.9494C32.321 14.0301 32.3955 14.1385 32.4386 14.2622C32.4817 14.386 32.4917 14.5203 32.4674 14.6498C32.4431 14.7794 32.3854 14.899 32.301 14.9953L32.0432 15.2893C31.9937 15.3457 31.9577 15.4141 31.9384 15.4887C31.9191 15.5633 31.917 15.6418 31.9323 15.7175L32.0119 16.1124C32.0379 16.2415 32.0297 16.3758 31.9883 16.5002C31.9469 16.6247 31.8738 16.7341 31.7774 16.8164C31.681 16.8986 31.5651 16.9502 31.4428 16.9654C31.3205 16.9807 31.1966 16.9589 31.0852 16.9026L30.7447 16.7305C30.6794 16.6973 30.6076 16.6817 30.5354 16.685C30.4633 16.6884 30.3929 16.7105 30.3306 16.7496L30.0052 16.9528C29.8963 17.0211 29.7714 17.0546 29.6453 17.0493Z" fill="white"/>
<path d="M34.9467 16.8839C34.7787 16.8756 34.6199 16.7995 34.502 16.671C34.4308 16.59 34.3776 16.4928 34.3466 16.3865C34.3156 16.2803 34.3075 16.1679 34.323 16.0579L34.3665 15.6903C34.3758 15.612 34.3672 15.5325 34.3414 15.4586C34.3157 15.3847 34.2736 15.3186 34.2187 15.266L33.9585 15.0166C33.8817 14.9463 33.8205 14.8585 33.7794 14.7597C33.7382 14.6609 33.7182 14.5534 33.7206 14.4452C33.7263 14.2849 33.7826 14.1314 33.8802 14.0099C33.9778 13.8884 34.1111 13.8061 34.258 13.7765L34.6236 13.702C34.6959 13.6873 34.7637 13.6539 34.8213 13.6048C34.8789 13.5556 34.9245 13.4922 34.9541 13.42L35.0904 13.0882C35.1391 12.9622 35.2192 12.8531 35.322 12.7729C35.4248 12.6927 35.5462 12.6444 35.6729 12.6335C35.7971 12.6259 35.9208 12.6563 36.0295 12.7212C36.1382 12.7861 36.2274 12.8827 36.2869 12.9999L36.4658 13.3498C36.5012 13.419 36.5518 13.478 36.6132 13.5216C36.6746 13.5652 36.7449 13.5922 36.8182 13.6001L37.1652 13.6377C37.2659 13.6461 37.3635 13.6786 37.451 13.7326C37.5385 13.7867 37.6136 13.861 37.6709 13.9502C37.754 14.0835 37.7925 14.2431 37.7801 14.4029C37.7676 14.5627 37.705 14.7132 37.6024 14.8299L37.3475 15.1205C37.2971 15.178 37.2605 15.2476 37.2409 15.3236C37.2212 15.3996 37.219 15.4795 37.2346 15.5566L37.308 15.9212C37.3316 16.0264 37.333 16.136 37.3123 16.2419C37.2916 16.3478 37.2492 16.4475 37.1882 16.5337C37.0961 16.6604 36.9665 16.7496 36.8207 16.7866C36.675 16.8235 36.5218 16.8061 36.3865 16.7372L36.0496 16.5669C35.9831 16.5333 35.91 16.5175 35.8366 16.5209C35.7632 16.5243 35.6916 16.5469 35.6281 16.5865L35.3066 16.7874C35.1977 16.8558 35.0728 16.8892 34.9467 16.8839Z" fill="white"/>
<path d="M40.2618 16.8598C40.1705 16.8554 40.081 16.8308 39.9991 16.7875C39.9171 16.7442 39.8444 16.6832 39.7855 16.6082C39.7266 16.5333 39.6827 16.4461 39.6568 16.3521C39.6308 16.2582 39.6233 16.1594 39.6347 16.0622L39.6821 15.6615C39.6912 15.5847 39.6827 15.5066 39.6574 15.4341C39.6321 15.3615 39.5908 15.2966 39.537 15.245L39.2564 14.9761C39.1646 14.8881 39.0975 14.7742 39.0628 14.6475C39.0281 14.5207 39.0272 14.386 39.0601 14.2587C39.0931 14.1313 39.1586 14.0165 39.2492 13.927C39.3399 13.8375 39.4521 13.777 39.5731 13.7524L39.943 13.677C40.0139 13.6626 40.0804 13.6299 40.1369 13.5818C40.1934 13.5336 40.2382 13.4714 40.2673 13.4006L40.4191 13.0308C40.4688 12.9099 40.549 12.8064 40.6507 12.7318C40.7524 12.6573 40.8716 12.6148 40.9946 12.6091C41.1177 12.6033 41.2398 12.6347 41.3471 12.6995C41.4544 12.7643 41.5427 12.86 41.602 12.9758L41.783 13.3298C41.8177 13.3978 41.8673 13.4557 41.9275 13.4985C41.9877 13.5413 42.0568 13.5677 42.1287 13.5755L42.5031 13.6161C42.6256 13.6294 42.7423 13.6792 42.8398 13.7599C42.9374 13.8406 43.0119 13.949 43.055 14.0728C43.0981 14.1966 43.1081 14.3308 43.0838 14.4604C43.0595 14.5899 43.0019 14.7096 42.9174 14.8058L42.6596 15.0999C42.6101 15.1562 42.5741 15.2246 42.5548 15.2992C42.5355 15.3738 42.5334 15.4524 42.5487 15.528L42.6283 15.9229C42.6543 16.052 42.6461 16.1864 42.6047 16.3108C42.5633 16.4352 42.4903 16.5447 42.3939 16.6269C42.2974 16.7091 42.1815 16.7607 42.0592 16.776C41.9369 16.7912 41.813 16.7694 41.7016 16.7131L41.3611 16.541C41.2958 16.5078 41.224 16.4922 41.1518 16.4956C41.0797 16.4989 41.0093 16.521 40.947 16.5601L40.6216 16.7633C40.5127 16.8317 40.3878 16.8652 40.2618 16.8598Z" fill="white"/>
<path opacity="0.2" d="M45.4316 16.7095C45.3403 16.705 45.2509 16.6804 45.1689 16.6371C45.0869 16.5938 45.0142 16.5328 44.9553 16.4578C44.8964 16.3829 44.8526 16.2957 44.8267 16.2017C44.8007 16.1078 44.7932 16.009 44.8045 15.9118L44.852 15.5112C44.861 15.4343 44.8526 15.3563 44.8273 15.2837C44.802 15.2111 44.7607 15.1463 44.7068 15.0946L44.4263 14.8257C44.3344 14.7377 44.2674 14.6239 44.2327 14.4971C44.198 14.3703 44.197 14.2356 44.23 14.1083C44.2629 13.981 44.3284 13.8661 44.4191 13.7766C44.5098 13.6871 44.6219 13.6266 44.743 13.602L45.1128 13.5267C45.1837 13.5122 45.2503 13.4795 45.3068 13.4314C45.3633 13.3832 45.408 13.321 45.4371 13.2502L45.589 12.8804C45.6387 12.7595 45.7189 12.656 45.8206 12.5815C45.9223 12.5069 46.0414 12.4644 46.1645 12.4587C46.2875 12.4529 46.4096 12.4843 46.517 12.5491C46.6243 12.6139 46.7126 12.7096 46.7719 12.8254L46.9528 13.1794C46.9875 13.2474 47.0371 13.3053 47.0974 13.3481C47.1576 13.3909 47.2266 13.4173 47.2985 13.4251L47.6729 13.4657C47.7955 13.479 47.9121 13.5288 48.0097 13.6095C48.1072 13.6902 48.1818 13.7986 48.2249 13.9224C48.268 14.0462 48.278 14.1804 48.2536 14.31C48.2293 14.4395 48.1717 14.5592 48.0873 14.6554L47.8294 14.9495C47.7799 15.0058 47.744 15.0743 47.7246 15.1489C47.7053 15.2235 47.7032 15.302 47.7186 15.3776L47.7981 15.7725C47.8242 15.9016 47.816 16.036 47.7746 16.1604C47.7331 16.2848 47.6601 16.3943 47.5637 16.4765C47.4673 16.5587 47.3514 16.6104 47.229 16.6256C47.1067 16.6408 46.9828 16.619 46.8714 16.5627L46.531 16.3906C46.4657 16.3575 46.3938 16.3419 46.3217 16.3452C46.2495 16.3485 46.1792 16.3707 46.1168 16.4097L45.7915 16.6129C45.6826 16.6813 45.5577 16.7148 45.4316 16.7095Z" fill="black"/>
<path opacity="0.2" d="M50.6014 16.5591C50.5102 16.5547 50.4207 16.53 50.3387 16.4867C50.2568 16.4434 50.184 16.3824 50.1251 16.3075C50.0662 16.2325 50.0224 16.1453 49.9965 16.0513C49.9705 15.9574 49.963 15.8586 49.9744 15.7614L50.0218 15.3608C50.0309 15.2839 50.0224 15.2059 49.9971 15.1333C49.9718 15.0608 49.9305 14.9959 49.8767 14.9442L49.5961 14.6753C49.5043 14.5873 49.4372 14.4735 49.4025 14.3467C49.3678 14.2199 49.3669 14.0852 49.3998 13.9579C49.4328 13.8306 49.4983 13.7157 49.5889 13.6262C49.6796 13.5367 49.7918 13.4763 49.9128 13.4516L50.2826 13.3763C50.3535 13.3618 50.4201 13.3291 50.4766 13.281C50.5331 13.2328 50.5778 13.1707 50.607 13.0998L50.7588 12.73C50.8085 12.6092 50.8887 12.5056 50.9904 12.4311C51.0921 12.3565 51.2112 12.314 51.3343 12.3083C51.4574 12.3026 51.5794 12.3339 51.6868 12.3987C51.7941 12.4635 51.8824 12.5592 51.9417 12.675L52.1226 13.029C52.1574 13.097 52.207 13.1549 52.2672 13.1977C52.3274 13.2405 52.3965 13.2669 52.4683 13.2748L52.8428 13.3153C52.9653 13.3286 53.082 13.3784 53.1795 13.4592C53.277 13.5399 53.3516 13.6482 53.3947 13.772C53.4378 13.8958 53.4478 14.0301 53.4235 14.1596C53.3991 14.2891 53.3415 14.4088 53.2571 14.505L52.9992 14.7991C52.9497 14.8554 52.9138 14.9239 52.8945 14.9985C52.8752 15.0731 52.8731 15.1516 52.8884 15.2273L52.9679 15.6221C52.994 15.7513 52.9858 15.8856 52.9444 16.01C52.903 16.1344 52.8299 16.2439 52.7335 16.3261C52.6371 16.4083 52.5212 16.46 52.3989 16.4752C52.2765 16.4904 52.1527 16.4687 52.0413 16.4123L51.7008 16.2402C51.6355 16.2071 51.5637 16.1915 51.4915 16.1948C51.4193 16.1981 51.349 16.2203 51.2867 16.2593L50.9613 16.4625C50.8524 16.5309 50.7275 16.5644 50.6014 16.5591Z" fill="black"/>
<path d="M83.5386 63.8741L83.6898 60.2264C85.2664 59.3225 87.0249 58.845 88.8126 58.8354C86.3522 60.9931 86.6597 65.1524 84.9916 68.054C84.4649 68.9546 83.7559 69.7167 82.9173 70.2835C82.0788 70.8504 81.132 71.2075 80.1472 71.3286L78.0883 72.6808C77.8058 70.9913 77.868 69.2563 78.2709 67.5952C78.6737 65.9341 79.4074 64.3863 80.4215 63.0587C80.9973 62.3199 81.6576 61.6619 82.3867 61.1001C82.8798 62.4948 83.5386 63.8741 83.5386 63.8741Z" fill="#F2F2F2"/>
<path d="M95.3426 73.0003H40.1571C40.1153 73.0003 40.0753 72.9825 40.0457 72.9509C40.0162 72.9192 39.9996 72.8763 39.9996 72.8315C39.9996 72.7867 40.0162 72.7437 40.0457 72.7121C40.0753 72.6804 40.1153 72.6626 40.1571 72.6626H95.3426C95.3843 72.6626 95.4244 72.6804 95.4539 72.7121C95.4834 72.7437 95.5 72.7867 95.5 72.8315C95.5 72.8763 95.4834 72.9192 95.4539 72.9509C95.4244 72.9825 95.3843 73.0003 95.3426 73.0003Z" fill="#CACACA"/>
</g>
<defs>
<clipPath id="clip0_2522_468">
<rect width="95" height="73" fill="white" transform="translate(0.5)"/>
</clipPath>
</defs>
</svg>
