<svg width="95" height="73" viewBox="0 0 95 73" fill="none" xmlns="http://www.w3.org/2000/svg">
<g clip-path="url(#clip0_2522_505)">
<path d="M87.8972 66.353C84.7846 68.7501 80.9925 71.1784 77.2642 72.3234C76.1894 72.6633 75.0803 72.8803 73.9577 72.9703C72.9082 73.0556 71.852 72.9727 70.828 72.7247C68.1373 72.0478 65.6415 70.8625 63.2266 69.4777C62.4376 69.0246 61.6578 68.5507 60.8825 68.0664C59.6169 67.2754 58.3639 66.4568 57.1074 65.6577C56.9193 65.5366 56.7323 65.4179 56.5442 65.3003H56.543C56.2398 65.1077 55.9357 64.9178 55.6309 64.7307C55.5773 64.6972 55.5237 64.6649 55.469 64.6315C54.8932 64.2787 54.3076 63.9339 53.712 63.5972C53.6391 63.5569 53.5661 63.5154 53.4931 63.475C52.3409 62.8286 51.1566 62.2425 49.945 61.7189C49.1491 61.3799 48.3431 61.0744 47.529 60.8138H47.5279C47.2166 60.7146 46.9042 60.6212 46.5907 60.5359C45.6505 60.275 44.6924 60.0854 43.7243 59.9686C42.3903 59.8053 41.0411 59.8161 39.7098 60.0009C39.6198 60.0136 39.5308 60.0263 39.4408 60.0412C35.8379 60.6247 32.5497 62.5918 28.9308 63.0553C28.8134 63.0703 28.6971 63.0841 28.5797 63.0945C28.5295 63.0991 28.4793 63.1049 28.4292 63.1083C27.3775 63.1993 26.3192 63.173 25.2732 63.0299C22.351 62.6402 19.5052 61.4307 16.9433 59.9063C10.9541 56.3423 6.09702 50.8642 3.14403 44.5202C2.63694 43.433 2.18672 42.3195 1.79523 41.1845C0.700678 38.037 0.0979028 34.7362 0.00860999 31.4009C-0.268447 19.829 6.23384 8.21911 16.4428 2.98547C26.6528 -2.24817 40.0838 -0.51746 48.318 7.52267C53.313 12.4 56.2033 19.0092 59.9624 24.9139C63.7214 30.8175 69.0642 36.457 75.9553 37.3172C79.4658 37.7553 83.1394 36.9078 86.504 38.0101C88.367 38.6213 89.9563 39.7904 91.2367 41.2802C92.0975 42.2911 92.8179 43.4161 93.3779 44.624C93.7884 45.4972 94.1215 46.4055 94.3733 47.3382C94.42 47.51 94.4634 47.6818 94.5056 47.8536C96.1816 54.7765 93.5033 62.0337 87.8972 66.353Z" fill="#F2F2F2"/>
<path d="M31.829 53.8208H21.1116C19.5059 53.8208 18.2042 55.1372 18.2042 56.761V56.7611C18.2042 58.3849 19.5059 59.7013 21.1116 59.7013H31.829C33.4348 59.7013 34.7364 58.3849 34.7364 56.761C34.7364 55.1372 33.4348 53.8208 31.829 53.8208Z" fill="#506DB8"/>
<path d="M28.5796 58.2021V63.0945C27.4787 63.2022 26.3691 63.1805 25.2731 63.0299V58.2021H28.5796Z" fill="#506DB8"/>
<path d="M39.7098 60.0011C39.6197 60.0137 39.5308 60.0264 39.4407 60.0414C35.8378 60.6249 32.5496 62.5919 28.9308 63.0555C28.8133 63.0704 28.697 63.0843 28.5796 63.0947C28.5294 63.0993 28.4793 63.105 28.4291 63.1085C27.5455 62.2333 26.6619 61.3017 25.8318 60.3366C25.3815 59.8143 24.9459 59.2816 24.5366 58.7419C23.474 57.3491 22.5733 55.917 21.9781 54.5103C22.0385 53.8358 21.6235 52.2757 21.4251 51.0812L21.424 51.08C21.3396 50.5784 21.294 50.1426 21.3362 49.8624C21.5779 48.2458 22.8834 48.4315 23.2847 46.8472C23.6468 46.5433 24.0322 46.2692 24.4374 46.0274C24.5047 45.987 24.5731 45.9467 24.6438 45.9063L28.9992 42.8623L30.6638 44.5135L33.1972 47.0271L35.9427 49.7494L33.6122 52.1304C33.6122 52.1304 35.5596 54.4008 37.8365 57.4275C38.4476 58.2404 39.0827 59.1086 39.7098 60.0011Z" fill="#082777"/>
<path d="M77.2641 58.2021V72.3234C76.1893 72.6633 75.0802 72.8803 73.9576 72.9703V58.2021H77.2641Z" fill="#506DB8"/>
<path d="M81.5397 57.0493H70.8222C69.2165 57.0493 67.9148 58.3657 67.9148 59.9896V59.9896C67.9148 61.6134 69.2165 62.9298 70.8222 62.9298H81.5397C83.1454 62.9298 84.447 61.6134 84.447 59.9896C84.447 58.3657 83.1454 57.0493 81.5397 57.0493Z" fill="#506DB8"/>
<path d="M55.4689 64.6315C54.8931 64.2787 54.3075 63.9339 53.7119 63.5972C53.639 63.5569 53.566 63.5153 53.493 63.475L53.8853 63.3055L54.9433 62.8454L54.9536 62.8408L54.965 62.88L55.4689 64.6315Z" fill="#FFB6B6"/>
<path d="M57.1074 65.6578C56.9192 65.5368 56.7323 65.418 56.5441 65.3004H56.543C56.2397 65.1078 55.9357 64.918 55.6309 64.7308C55.5773 64.6973 55.5237 64.6651 55.469 64.6316C54.8932 64.2788 54.3075 63.934 53.712 63.5973C53.639 63.557 53.5661 63.5155 53.4931 63.4751C52.3409 62.8288 51.1566 62.2426 49.9449 61.719C49.1491 61.3801 48.343 61.0745 47.529 60.8139H47.5278L46.8882 59.7312L44.0093 54.855L43.3765 53.7838C43.3765 53.7838 41.2182 54.4295 38.1637 55.0487C37.0521 55.2747 35.823 55.4961 34.5335 55.6829C33.1551 55.8812 31.7093 56.0392 30.2727 56.1153C29.5875 56.1522 28.9046 56.1706 28.2319 56.1649C26.4931 56.1533 24.8228 55.9884 23.36 55.5964C22.872 55.1329 21.4012 54.5022 20.3477 53.9245H20.3466C19.9042 53.6824 19.5371 53.4506 19.3444 53.2442C18.2339 52.0566 19.1825 51.1307 18.1951 49.8347C18.1818 49.3592 18.2058 48.8834 18.2669 48.4118C18.2772 48.3334 18.2875 48.2539 18.3 48.1732L18.6113 42.8277L20.9235 42.5187L24.442 42.0482L28.2535 41.5386L28.6731 44.8616C28.6731 44.8616 31.6409 44.7094 35.4011 44.7602C41.4405 44.8432 49.5219 45.452 50.6165 48.0648C50.7191 48.3104 50.8217 48.5583 50.9243 48.8062C51.1683 49.3988 51.41 49.9946 51.6495 50.5934C52.5171 52.7611 53.3449 54.9496 54.1008 57.0181C54.5705 58.3049 55.0129 59.5456 55.4199 60.7067C55.7472 61.6406 56.0504 62.5239 56.3275 63.3368C56.5806 64.0793 56.8098 64.7631 57.0139 65.3765C57.0458 65.4722 57.0766 65.5667 57.1074 65.6578Z" fill="#082777"/>
<path d="M35.8371 33.2706L28.5339 26.9979L33.2855 22.1348L36.6005 27.6259L48.8883 30.0896C49.2578 29.8084 49.7002 29.642 50.1616 29.6106C50.623 29.5793 51.0834 29.6844 51.4868 29.9131C51.8901 30.1419 52.2189 30.4843 52.4331 30.8988C52.6473 31.3132 52.7377 31.7818 52.6931 32.2473C52.6485 32.7127 52.471 33.155 52.1822 33.5203C51.8934 33.8855 51.5057 34.1578 51.0665 34.3041C50.6273 34.4503 50.1554 34.4642 49.7085 34.3439C49.2617 34.2237 48.859 33.9745 48.5497 33.6269L35.8371 33.2706Z" fill="#A0616A"/>
<path d="M22.0794 18.754C21.2354 21.5308 29.2737 28.1536 29.2737 28.1536C29.3631 27.4869 33.9205 33.2354 34.2306 32.7148C35.1118 31.2352 36.0815 27.5778 37.0988 27.1103C37.6806 26.843 34.343 23.1273 34.343 23.1273C34.343 23.1273 32.6405 20.8494 30.3926 17.9624C29.772 17.1343 28.9544 16.4784 28.0157 16.0558C27.0771 15.6332 26.048 15.4577 25.0243 15.5455C25.0243 15.5455 22.9235 15.9772 22.0794 18.754Z" fill="#506DB8"/>
<path d="M25.6335 12.6066C28.3616 12.6066 30.5731 10.37 30.5731 7.61115C30.5731 4.85225 28.3616 2.61572 25.6335 2.61572C22.9054 2.61572 20.6939 4.85225 20.6939 7.61115C20.6939 10.37 22.9054 12.6066 25.6335 12.6066Z" fill="#A0616A"/>
<path d="M28.1033 15.9084C29.1675 16.5482 29.8041 17.7237 30.1695 18.92C30.846 21.1346 31.2533 23.4244 31.3822 25.7387L31.7682 32.6672L36.5484 47.42C32.4055 50.9652 16.833 48.2258 16.833 48.2258C16.833 48.2258 16.355 48.0646 16.833 47.5812C17.311 47.0977 17.7764 47.526 17.2984 47.0426C16.8204 46.5592 17.1499 47.0977 17.3092 46.6143C17.4686 46.1309 17.3092 46.4532 17.1499 46.292C16.9905 46.1309 18.3834 44.6806 18.3834 44.6806L17.1087 36.2124L15.5153 19.1312C17.4274 16.7141 21.2729 15.2892 21.2729 15.2892L22.2665 13.4805L27.2346 13.8824L28.1033 15.9084Z" fill="#506DB8"/>
<path d="M29.7054 4.95736C30.0893 5.24694 30.3738 5.651 30.5187 6.11265C30.5743 5.35822 30.5779 4.60077 30.5292 3.84584C30.471 3.31535 30.1017 3.19602 29.6741 3.05776C29.2879 2.93283 28.8511 2.79173 28.7336 2.27674C27.1809 0.749143 24.4779 0.826172 22.6281 1.35902C21.6102 1.65224 21.0245 2.02896 20.9721 2.24965L20.9612 2.29508L20.9199 2.31598C20.1353 2.71272 19.9826 3.96555 19.9926 4.94666C20.0118 6.79514 20.6429 8.89455 20.9984 9.0651C21.0172 9.07412 21.022 9.07059 21.0301 9.06372C21.5655 8.63106 22.2186 9.0966 22.5056 9.34968C22.6749 8.20081 23.22 7.14246 24.0538 6.34365C24.8877 5.54484 25.9622 5.05165 27.1057 4.94284C27.4791 4.90634 27.8496 4.84352 28.2144 4.75483C28.3994 4.70642 28.5897 4.68118 28.7808 4.67967C29.1098 4.67461 29.4325 4.77152 29.7054 4.95736Z" fill="#082777"/>
<path d="M23.4813 40.7964L21.9703 40.0138C21.8893 39.9555 21.8318 39.8696 21.8083 39.7719C21.7847 39.6743 21.7967 39.5713 21.842 39.4818C21.8873 39.3923 21.963 39.3223 22.0551 39.2846C22.1472 39.2468 22.2497 39.2438 22.3438 39.2762L23.8549 40.0588C23.9358 40.1171 23.9933 40.203 24.0169 40.3006C24.0404 40.3983 24.0284 40.5013 23.9831 40.5908C23.9378 40.6802 23.8622 40.7503 23.77 40.788C23.6779 40.8258 23.5754 40.8287 23.4813 40.7964Z" fill="#4B93E7"/>
<path d="M18.3959 38.6997L15.9102 29.3414L22.5526 28.0698L22.1954 34.4933L30.9229 43.5814C31.385 43.5623 31.8425 43.6795 32.2398 43.9189C32.6371 44.1582 32.9569 44.5092 33.1603 44.9292C33.3637 45.3492 33.4419 45.82 33.3853 46.2841C33.3287 46.7483 33.1398 47.1857 32.8416 47.5432C32.5434 47.9006 32.1489 48.1626 31.706 48.2971C31.2631 48.4317 30.7911 48.4331 30.3475 48.301C29.9039 48.169 29.5078 47.9093 29.2077 47.5536C28.9075 47.1978 28.7161 46.7615 28.6569 46.2977L18.3959 38.6997Z" fill="#A0616A"/>
<path d="M15.2305 18.8488C12.9759 20.6489 15.8697 30.7176 15.8697 30.7176C16.3178 30.2204 16.8384 37.5696 17.3861 37.3193C18.9425 36.6081 21.7953 34.1556 22.8951 34.3555C23.5241 34.4698 22.8651 29.4944 22.8651 29.4944C22.8651 29.4944 22.744 26.6416 22.5162 22.9742C22.4708 21.9361 22.1664 20.9266 21.6315 20.0395C21.0965 19.1524 20.3483 18.4166 19.4565 17.9006C19.4565 17.9006 17.4852 17.0488 15.2305 18.8488Z" fill="#506DB8"/>
<path d="M93.3779 44.6241L3.14393 44.5203C2.63684 43.4331 2.18662 42.3196 1.79514 41.1846L91.2367 41.2803C92.0975 42.2912 92.8178 43.4162 93.3779 44.6241Z" fill="#506DB8"/>
<path d="M64.638 68.8173C64.1717 69.0456 63.7012 69.2658 63.2265 69.4779C62.4376 69.0248 61.6577 68.5509 60.8824 68.0666L63.7578 66.7891L64.638 68.8173Z" fill="#FFB6B6"/>
<path d="M85.6032 52.9281C85.1357 53.5623 84.6534 54.1837 84.1563 54.7925C83.698 55.3541 83.2275 55.9048 82.7448 56.4448C82.5453 56.6685 82.3435 56.8911 82.1371 57.1113C81.7574 57.5229 81.3694 57.9277 80.973 58.3255C80.2593 58.5526 78.8136 58.9527 77.2641 59.3263C76.1365 59.5973 74.9541 59.8544 73.9576 60.0181C73.3998 60.1194 72.8355 60.1803 72.2691 60.2003C71.5964 60.2061 70.9134 60.1876 70.2282 60.1507C69.4552 60.1092 68.681 60.0446 67.916 59.9616C65.9264 59.7506 63.9996 59.422 62.3372 59.0842C61.7284 58.9619 61.156 58.8374 60.6293 58.7163C59.6316 58.4892 58.797 58.277 58.1928 58.1156C57.5121 57.9357 57.1244 57.8193 57.1244 57.8193L55.4199 60.7065L54.5352 62.2043L53.8853 63.3054L53.712 63.5971C53.639 63.5568 53.566 63.5153 53.4931 63.4749C52.3408 62.8286 51.1566 62.2424 49.9449 61.7188C49.1491 61.3798 48.343 61.0743 47.5289 60.8137H47.5278C47.2165 60.7145 46.9041 60.6211 46.5906 60.5358C46.6886 60.2695 46.7878 60.0012 46.8882 59.731C47.0751 59.2271 47.2659 58.7186 47.4605 58.2055C47.8812 57.094 48.3168 55.9663 48.7649 54.8444C49.132 53.9232 49.506 53.0053 49.8845 52.1002C50.0589 51.6828 50.4135 51.3161 50.9095 50.9944C51.1465 50.8433 51.3938 50.7092 51.6494 50.5932C53.0689 49.9394 55.16 49.5139 57.4642 49.2407C57.6546 49.2188 57.8462 49.1969 58.0389 49.1761C59.9463 48.9732 61.9701 48.8682 63.8628 48.8198C64.8102 48.7956 65.7246 48.7864 66.5752 48.7852C66.85 48.7852 67.1171 48.786 67.3767 48.7875H67.3778C68.079 48.791 68.7244 48.8014 69.2922 48.8129C69.4028 48.8152 69.5099 48.8187 69.6148 48.821H69.616C69.6867 48.8221 69.7562 48.8244 69.8246 48.8256C71.0662 48.8579 71.8279 48.8971 71.8279 48.8971L72.1232 46.5541L72.1836 46.0813L72.2406 45.6317V45.6305L72.2474 45.574L72.2942 45.5729L73.1151 45.5567L80.0153 45.4207L83.7846 45.3457L83.1872 47.9354L82.201 52.2086C82.3013 52.8843 85.6374 52.355 85.6032 52.9281Z" fill="#082777"/>
<path d="M65.4886 68.3904C65.207 68.5356 64.9231 68.6786 64.638 68.817C64.1717 69.0453 63.7012 69.2655 63.2265 69.4777C62.4375 69.0245 61.6577 68.5506 60.8824 68.0664C59.6168 67.2754 58.3638 66.4567 57.1073 65.6577C56.9192 65.5366 56.7322 65.4178 56.5441 65.3002H56.543C56.0253 64.5231 55.4974 63.7136 54.965 62.88C54.957 62.8685 54.9502 62.8569 54.9433 62.8454C54.8065 62.6332 54.6705 62.4195 54.5352 62.2043C53.6835 60.8552 52.8272 59.4485 51.996 58.0119L54.1008 57.0179L58.0137 55.1708L58.6887 54.8525L60.6293 58.7164L62.36 62.1628L62.7454 62.9296L65.4886 68.3904Z" fill="#082777"/>
<path d="M66.0783 49.8402L76.0547 40.1104L78.8199 32.1925L74.7412 30.3989C72.6462 32.4284 70.3817 38.7497 70.3817 38.7497L63.5165 47.5825C63.463 47.601 63.4096 47.6207 63.3569 47.6442C63.0477 47.7821 62.7789 47.9984 62.5765 48.272C62.3741 48.5457 62.2449 48.8675 62.2014 49.2064C62.1579 49.5453 62.2015 49.8899 62.3282 50.2067C62.4548 50.5236 62.6602 50.802 62.9243 51.0152C63.1885 51.2283 63.5025 51.369 63.8361 51.4235C64.1698 51.478 64.5116 51.4446 64.8287 51.3265C65.1459 51.2083 65.4275 51.0095 65.6464 50.7491C65.8653 50.4887 66.0141 50.1757 66.0783 49.8402Z" fill="#FFB8B8"/>
<path d="M73.5936 31.2828L78.7671 32.9438L78.7866 32.9405C80.7121 32.6143 82.3099 29.4338 83.3112 26.8232C83.6406 25.9621 83.6345 25.0066 83.294 24.1499C82.9535 23.2932 82.3041 22.5992 81.477 22.2082C80.8649 21.9239 80.1865 21.8185 79.5182 21.9037C78.85 21.989 78.2187 22.2616 77.6957 22.6907L75.039 24.886L73.5936 31.2828Z" fill="#4B93E7"/>
<path d="M85.5824 53.045L85.6126 53.0044C87.2268 50.8394 85.0191 45.4781 84.6853 44.7006L86.1862 44.251L85.9246 41.361L85.7986 40.0724L86.9655 38.9517L86.9694 38.923L87.772 33.1472L88.8221 29.3244C89.2178 27.8793 89.2262 26.3536 88.8463 24.9041C88.4664 23.4546 87.7119 22.1334 86.6602 21.0762L84.5136 18.9208L81.9419 14.8499L77.6299 14.7373L76.0793 17.5229C74.6373 17.8205 73.3443 18.6203 72.4255 19.7829C71.5066 20.9455 71.0202 22.3972 71.0509 23.8852L71.1969 31.3011L69.6497 40.4893L69.6063 42.1583L68.0877 43.7789L68.3684 45.4173L67.2325 45.8749L66.6766 48.2031C66.4643 48.4717 65.0626 50.2636 65.0498 50.7631C65.0479 50.8381 65.1008 50.912 65.2162 50.9955C66.1236 51.652 71.1949 53.0745 73.4773 52.2193C75.9085 51.3091 85.4369 53.0186 85.5329 53.036L85.5824 53.045Z" fill="#4B93E7"/>
<path d="M79.4093 13.4893C82.5642 13.4893 85.1218 10.9028 85.1218 7.71219C85.1218 4.52157 82.5642 1.93506 79.4093 1.93506C76.2543 1.93506 73.6967 4.52157 73.6967 7.71219C73.6967 10.9028 76.2543 13.4893 79.4093 13.4893Z" fill="#FFB8B8"/>
<path d="M78.7124 13.5668C79.597 13.5808 80.4812 13.5183 81.3553 13.38C82.2217 13.2019 84.16 11.7654 84.7004 10.901C85.1018 10.2588 85.3585 9.25592 85.5032 8.52774C85.6981 7.56413 85.6906 6.56987 85.4814 5.60935C85.2721 4.64882 84.8657 3.74345 84.2885 2.95186C84.0667 2.62076 83.7604 2.35645 83.4023 2.1869C83.3705 2.17434 83.3378 2.16322 83.3048 2.15371C82.7829 2.01483 82.3139 1.72135 81.9581 1.31096C81.8891 1.22796 81.8143 1.15008 81.7342 1.07795C81.3321 0.734736 80.8553 0.49264 80.3429 0.371452C79.5159 0.1476 78.3189 0.369803 76.7854 1.03253C76.015 1.36549 75.1724 1.24499 74.5243 1.1028C74.4879 1.0957 74.4503 1.09835 74.4153 1.11048C74.3803 1.12262 74.349 1.14382 74.3246 1.17198C74.0488 1.4338 73.6853 1.58036 73.307 1.58219C73.0753 1.59248 72.8323 1.9169 72.5385 2.33994C72.4718 2.43597 72.394 2.54805 72.3379 2.61622L72.3304 2.48525L72.1993 2.63135C71.9933 2.86098 71.8481 3.13959 71.7773 3.44125C71.7064 3.7429 71.7122 4.05778 71.7941 4.35657C71.8759 4.65535 72.0312 4.92833 72.2455 5.15007C72.4598 5.37181 72.7261 5.53512 73.0196 5.62476C73.2526 5.68747 73.4914 5.72595 73.7322 5.73961C73.878 5.75288 74.0289 5.7666 74.1734 5.79197C74.6375 5.88806 75.0689 6.10419 75.4257 6.41925C75.7824 6.73431 76.0523 7.13754 76.2089 7.58957C76.246 7.69406 76.3063 7.78854 76.3852 7.86572C76.464 7.9429 76.5594 8.00072 76.6639 8.03471C76.7684 8.0687 76.8792 8.07795 76.9878 8.06175C77.0964 8.04555 77.1998 8.00434 77.2901 7.94129C77.4408 7.82269 77.6175 7.74269 77.8053 7.70811C77.9931 7.67352 78.1863 7.68539 78.3686 7.74268C78.5261 7.83126 78.6487 7.97192 78.7159 8.14106C78.7975 8.3295 78.9328 8.48909 79.1044 8.59947C79.6916 8.90561 79.732 10.2618 79.5212 11.3924C79.3179 12.4821 78.9161 13.2705 78.5441 13.3095C78.2577 13.3394 78.2249 13.36 78.2042 13.4112L78.1856 13.4571L78.2178 13.5C78.376 13.558 78.5447 13.5808 78.7124 13.5668Z" fill="#082777"/>
<path d="M75.0121 29.5362L72.8095 25.0952C69.6124 25.3161 63.2671 29.0544 63.2671 29.0544L51.2614 31.6287C50.9058 31.4904 50.5204 31.4493 50.144 31.5096C49.7677 31.5698 49.4137 31.7293 49.1176 31.9719C48.8216 32.2145 48.594 32.5317 48.4577 32.8915C48.3214 33.2514 48.2813 33.6412 48.3413 34.0217C48.4013 34.4022 48.5594 34.76 48.7997 35.0591C49.0399 35.3582 49.3538 35.588 49.7098 35.7254C50.0658 35.8628 50.4513 35.9029 50.8275 35.8418C51.2037 35.7806 51.5573 35.6203 51.8527 35.377L67.1246 34.2699L75.0121 29.5362Z" fill="#FFB8B8"/>
<path d="M74.1238 30.2655L79.8763 25.9423L80.8895 22.2494C81.0859 21.5237 81.0776 20.757 80.8656 20.0358C80.6536 19.3146 80.2464 18.6678 79.69 18.1683C78.9312 17.4965 77.9485 17.1411 76.9405 17.174C75.9325 17.2069 74.9745 17.6256 74.2601 18.3455C72.0953 20.5307 69.6263 23.5792 70.1567 25.6931L70.1621 25.7145L74.1238 30.2655Z" fill="#4B93E7"/>
<path d="M67.0027 41.8291H51.6107V43.9046H67.0027V41.8291Z" fill="white"/>
<path d="M27.6675 41.8291H12.2754V43.9046H27.6675V41.8291Z" fill="white"/>
<path d="M29.4648 31.848V41.7299C29.4649 41.8559 29.5144 41.9766 29.6025 42.0657C29.6905 42.1547 29.8099 42.2048 29.9344 42.2049H44.4149C44.5394 42.2048 44.6588 42.1547 44.7469 42.0657C44.8349 41.9766 44.8844 41.8559 44.8845 41.7299V31.848C44.8842 31.7221 44.8346 31.6016 44.7466 31.5126C44.6586 31.4237 44.5393 31.3737 44.4149 31.3735H29.9344C29.81 31.3737 29.6907 31.4237 29.6027 31.5126C29.5147 31.6016 29.4651 31.7221 29.4648 31.848Z" fill="#506DB8"/>
<path d="M29.8045 31.9712V41.6083C29.8046 41.6756 29.8311 41.7401 29.8781 41.7877C29.9252 41.8352 29.989 41.862 30.0555 41.8621H44.2943C44.3609 41.862 44.4247 41.8352 44.4717 41.7877C44.5187 41.7401 44.5452 41.6756 44.5453 41.6083V31.9712C44.5453 31.9038 44.5189 31.8392 44.4718 31.7915C44.4248 31.7438 44.361 31.7169 44.2943 31.7168H30.0555C29.9889 31.7169 29.925 31.7438 29.878 31.7915C29.8309 31.8392 29.8045 31.9038 29.8045 31.9712Z" fill="#4B93E7"/>
<path d="M29.162 43.6573C29.1885 43.691 29.2222 43.7181 29.2606 43.7367C29.299 43.7552 29.341 43.7648 29.3835 43.7646H44.8887C44.9311 43.7645 44.973 43.7549 45.0112 43.7364C45.0495 43.718 45.0832 43.6911 45.1099 43.6578C45.1366 43.6245 45.1557 43.5856 45.1657 43.5439C45.1756 43.5022 45.1763 43.4588 45.1676 43.4168L44.9269 42.2607C44.9169 42.2135 44.8954 42.1696 44.8644 42.133C44.8334 42.0964 44.7938 42.0682 44.7493 42.0511C44.717 42.0383 44.6827 42.0317 44.648 42.0317H29.6233C29.5886 42.0317 29.5543 42.0383 29.522 42.0511C29.4775 42.0682 29.4379 42.0964 29.4069 42.133C29.3758 42.1696 29.3544 42.2135 29.3444 42.2607L29.1037 43.4168C29.0951 43.4588 29.0959 43.5021 29.106 43.5437C29.1161 43.5853 29.1352 43.6242 29.162 43.6573Z" fill="#082777"/>
<path d="M44.116 42.5298H44.4822C44.513 42.5298 44.5379 42.5046 44.5379 42.4735V42.2963C44.5379 42.2652 44.513 42.24 44.4822 42.24H44.116C44.0852 42.24 44.0603 42.2652 44.0603 42.2963V42.4735C44.0603 42.5046 44.0852 42.5298 44.116 42.5298Z" fill="#506DB8"/>
<path d="M43.1609 42.5298H43.5271C43.5579 42.5298 43.5828 42.5046 43.5828 42.4735V42.2963C43.5828 42.2652 43.5579 42.24 43.5271 42.24H43.1609C43.1302 42.24 43.1052 42.2652 43.1052 42.2963V42.4735C43.1052 42.5046 43.1302 42.5298 43.1609 42.5298Z" fill="#506DB8"/>
<path d="M42.2058 42.5298H42.572C42.6027 42.5298 42.6277 42.5046 42.6277 42.4735V42.2963C42.6277 42.2652 42.6027 42.24 42.572 42.24H42.2058C42.175 42.24 42.1501 42.2652 42.1501 42.2963V42.4735C42.1501 42.5046 42.175 42.5298 42.2058 42.5298Z" fill="#506DB8"/>
<path d="M41.2507 42.5298H41.6169C41.6477 42.5298 41.6726 42.5046 41.6726 42.4735V42.2963C41.6726 42.2652 41.6477 42.24 41.6169 42.24H41.2507C41.2199 42.24 41.195 42.2652 41.195 42.2963V42.4735C41.195 42.5046 41.2199 42.5298 41.2507 42.5298Z" fill="#506DB8"/>
<path d="M40.2956 42.5298H40.6618C40.6926 42.5298 40.7175 42.5046 40.7175 42.4735V42.2963C40.7175 42.2652 40.6926 42.24 40.6618 42.24H40.2956C40.2648 42.24 40.2399 42.2652 40.2399 42.2963V42.4735C40.2399 42.5046 40.2648 42.5298 40.2956 42.5298Z" fill="#506DB8"/>
<path d="M39.3405 42.5298H39.7067C39.7374 42.5298 39.7624 42.5046 39.7624 42.4735V42.2963C39.7624 42.2652 39.7374 42.24 39.7067 42.24H39.3405C39.3097 42.24 39.2848 42.2652 39.2848 42.2963V42.4735C39.2848 42.5046 39.3097 42.5298 39.3405 42.5298Z" fill="#506DB8"/>
<path d="M38.3854 42.5298H38.7516C38.7824 42.5298 38.8073 42.5046 38.8073 42.4735V42.2963C38.8073 42.2652 38.7824 42.24 38.7516 42.24H38.3854C38.3547 42.24 38.3297 42.2652 38.3297 42.2963V42.4735C38.3297 42.5046 38.3547 42.5298 38.3854 42.5298Z" fill="#506DB8"/>
<path d="M37.4302 42.5298H37.7965C37.8272 42.5298 37.8521 42.5046 37.8521 42.4735V42.2963C37.8521 42.2652 37.8272 42.24 37.7965 42.24H37.4302C37.3995 42.24 37.3746 42.2652 37.3746 42.2963V42.4735C37.3746 42.5046 37.3995 42.5298 37.4302 42.5298Z" fill="#506DB8"/>
<path d="M36.4752 42.5298H36.8414C36.8721 42.5298 36.8971 42.5046 36.8971 42.4735V42.2963C36.8971 42.2652 36.8721 42.24 36.8414 42.24H36.4752C36.4444 42.24 36.4195 42.2652 36.4195 42.2963V42.4735C36.4195 42.5046 36.4444 42.5298 36.4752 42.5298Z" fill="#506DB8"/>
<path d="M35.5201 42.5298H35.8863C35.917 42.5298 35.942 42.5046 35.942 42.4735V42.2963C35.942 42.2652 35.917 42.24 35.8863 42.24H35.5201C35.4893 42.24 35.4644 42.2652 35.4644 42.2963V42.4735C35.4644 42.5046 35.4893 42.5298 35.5201 42.5298Z" fill="#506DB8"/>
<path d="M34.565 42.5298H34.9312C34.9619 42.5298 34.9868 42.5046 34.9868 42.4735V42.2963C34.9868 42.2652 34.9619 42.24 34.9312 42.24H34.565C34.5342 42.24 34.5093 42.2652 34.5093 42.2963V42.4735C34.5093 42.5046 34.5342 42.5298 34.565 42.5298Z" fill="#506DB8"/>
<path d="M33.6098 42.5298H33.9761C34.0068 42.5298 34.0317 42.5046 34.0317 42.4735V42.2963C34.0317 42.2652 34.0068 42.24 33.9761 42.24H33.6098C33.5791 42.24 33.5542 42.2652 33.5542 42.2963V42.4735C33.5542 42.5046 33.5791 42.5298 33.6098 42.5298Z" fill="#506DB8"/>
<path d="M32.6548 42.5298H33.021C33.0517 42.5298 33.0767 42.5046 33.0767 42.4735V42.2963C33.0767 42.2652 33.0517 42.24 33.021 42.24H32.6548C32.624 42.24 32.5991 42.2652 32.5991 42.2963V42.4735C32.5991 42.5046 32.624 42.5298 32.6548 42.5298Z" fill="#506DB8"/>
<path d="M31.6997 42.5298H32.0659C32.0966 42.5298 32.1216 42.5046 32.1216 42.4735V42.2963C32.1216 42.2652 32.0966 42.24 32.0659 42.24H31.6997C31.6689 42.24 31.644 42.2652 31.644 42.2963V42.4735C31.644 42.5046 31.6689 42.5298 31.6997 42.5298Z" fill="#506DB8"/>
<path d="M30.7446 42.5298H31.1108C31.1415 42.5298 31.1664 42.5046 31.1664 42.4735V42.2963C31.1664 42.2652 31.1415 42.24 31.1108 42.24H30.7446C30.7138 42.24 30.6889 42.2652 30.6889 42.2963V42.4735C30.6889 42.5046 30.7138 42.5298 30.7446 42.5298Z" fill="#506DB8"/>
<path d="M29.7894 42.5298H30.1557C30.1864 42.5298 30.2113 42.5046 30.2113 42.4735V42.2963C30.2113 42.2652 30.1864 42.24 30.1557 42.24H29.7894C29.7587 42.24 29.7338 42.2652 29.7338 42.2963V42.4735C29.7338 42.5046 29.7587 42.5298 29.7894 42.5298Z" fill="#506DB8"/>
<path d="M44.1273 43.0127H44.4935C44.5243 43.0127 44.5492 42.9875 44.5492 42.9564V42.7792C44.5492 42.7481 44.5243 42.7229 44.4935 42.7229H44.1273C44.0966 42.7229 44.0716 42.7481 44.0716 42.7792V42.9564C44.0716 42.9875 44.0966 43.0127 44.1273 43.0127Z" fill="#506DB8"/>
<path d="M43.1722 43.0127H43.5384C43.5692 43.0127 43.5941 42.9875 43.5941 42.9564V42.7792C43.5941 42.7481 43.5692 42.7229 43.5384 42.7229H43.1722C43.1415 42.7229 43.1165 42.7481 43.1165 42.7792V42.9564C43.1165 42.9875 43.1415 43.0127 43.1722 43.0127Z" fill="#506DB8"/>
<path d="M42.2171 43.0127H42.5833C42.6141 43.0127 42.639 42.9875 42.639 42.9564V42.7792C42.639 42.7481 42.6141 42.7229 42.5833 42.7229H42.2171C42.1863 42.7229 42.1614 42.7481 42.1614 42.7792V42.9564C42.1614 42.9875 42.1863 43.0127 42.2171 43.0127Z" fill="#506DB8"/>
<path d="M41.262 43.0127H41.6282C41.659 43.0127 41.6839 42.9875 41.6839 42.9564V42.7792C41.6839 42.7481 41.659 42.7229 41.6282 42.7229H41.262C41.2312 42.7229 41.2063 42.7481 41.2063 42.7792V42.9564C41.2063 42.9875 41.2312 43.0127 41.262 43.0127Z" fill="#506DB8"/>
<path d="M40.3069 43.0127H40.6731C40.7038 43.0127 40.7288 42.9875 40.7288 42.9564V42.7792C40.7288 42.7481 40.7038 42.7229 40.6731 42.7229H40.3069C40.2761 42.7229 40.2512 42.7481 40.2512 42.7792V42.9564C40.2512 42.9875 40.2761 43.0127 40.3069 43.0127Z" fill="#506DB8"/>
<path d="M39.3518 43.0127H39.718C39.7487 43.0127 39.7737 42.9875 39.7737 42.9564V42.7792C39.7737 42.7481 39.7487 42.7229 39.718 42.7229H39.3518C39.321 42.7229 39.2961 42.7481 39.2961 42.7792V42.9564C39.2961 42.9875 39.321 43.0127 39.3518 43.0127Z" fill="#506DB8"/>
<path d="M38.3967 43.0127H38.7629C38.7936 43.0127 38.8185 42.9875 38.8185 42.9564V42.7792C38.8185 42.7481 38.7936 42.7229 38.7629 42.7229H38.3967C38.3659 42.7229 38.341 42.7481 38.341 42.7792V42.9564C38.341 42.9875 38.3659 43.0127 38.3967 43.0127Z" fill="#506DB8"/>
<path d="M37.4415 43.0127H37.8078C37.8385 43.0127 37.8634 42.9875 37.8634 42.9564V42.7792C37.8634 42.7481 37.8385 42.7229 37.8078 42.7229H37.4415C37.4108 42.7229 37.3859 42.7481 37.3859 42.7792V42.9564C37.3859 42.9875 37.4108 43.0127 37.4415 43.0127Z" fill="#506DB8"/>
<path d="M36.4864 43.0127H36.8527C36.8834 43.0127 36.9083 42.9875 36.9083 42.9564V42.7792C36.9083 42.7481 36.8834 42.7229 36.8527 42.7229H36.4864C36.4557 42.7229 36.4308 42.7481 36.4308 42.7792V42.9564C36.4308 42.9875 36.4557 43.0127 36.4864 43.0127Z" fill="#506DB8"/>
<path d="M35.5314 43.0127H35.8976C35.9283 43.0127 35.9532 42.9875 35.9532 42.9564V42.7792C35.9532 42.7481 35.9283 42.7229 35.8976 42.7229H35.5314C35.5006 42.7229 35.4757 42.7481 35.4757 42.7792V42.9564C35.4757 42.9875 35.5006 43.0127 35.5314 43.0127Z" fill="#506DB8"/>
<path d="M34.5762 43.0127H34.9425C34.9732 43.0127 34.9981 42.9875 34.9981 42.9564V42.7792C34.9981 42.7481 34.9732 42.7229 34.9425 42.7229H34.5762C34.5455 42.7229 34.5206 42.7481 34.5206 42.7792V42.9564C34.5206 42.9875 34.5455 43.0127 34.5762 43.0127Z" fill="#506DB8"/>
<path d="M33.6211 43.0127H33.9874C34.0181 43.0127 34.043 42.9875 34.043 42.9564V42.7792C34.043 42.7481 34.0181 42.7229 33.9874 42.7229H33.6211C33.5904 42.7229 33.5655 42.7481 33.5655 42.7792V42.9564C33.5655 42.9875 33.5904 43.0127 33.6211 43.0127Z" fill="#506DB8"/>
<path d="M32.6661 43.0127H33.0323C33.063 43.0127 33.088 42.9875 33.088 42.9564V42.7792C33.088 42.7481 33.063 42.7229 33.0323 42.7229H32.6661C32.6353 42.7229 32.6104 42.7481 32.6104 42.7792V42.9564C32.6104 42.9875 32.6353 43.0127 32.6661 43.0127Z" fill="#506DB8"/>
<path d="M31.7109 43.0127H32.0772C32.1079 43.0127 32.1328 42.9875 32.1328 42.9564V42.7792C32.1328 42.7481 32.1079 42.7229 32.0772 42.7229H31.7109C31.6802 42.7229 31.6553 42.7481 31.6553 42.7792V42.9564C31.6553 42.9875 31.6802 43.0127 31.7109 43.0127Z" fill="#506DB8"/>
<path d="M30.7558 43.0127H31.1221C31.1528 43.0127 31.1777 42.9875 31.1777 42.9564V42.7792C31.1777 42.7481 31.1528 42.7229 31.1221 42.7229H30.7558C30.7251 42.7229 30.7002 42.7481 30.7002 42.7792V42.9564C30.7002 42.9875 30.7251 43.0127 30.7558 43.0127Z" fill="#506DB8"/>
<path d="M29.8007 43.0127H30.167C30.1977 43.0127 30.2226 42.9875 30.2226 42.9564V42.7792C30.2226 42.7481 30.1977 42.7229 30.167 42.7229H29.8007C29.77 42.7229 29.7451 42.7481 29.7451 42.7792V42.9564C29.7451 42.9875 29.77 43.0127 29.8007 43.0127Z" fill="#506DB8"/>
<path d="M36.1999 43.5923H39.909C39.9397 43.5923 39.9647 43.5671 39.9647 43.536V43.3588C39.9647 43.3277 39.9397 43.3025 39.909 43.3025H36.1999C36.1692 43.3025 36.1442 43.3277 36.1442 43.3588V43.536C36.1442 43.5671 36.1692 43.5923 36.1999 43.5923Z" fill="#506DB8"/>
</g>
<defs>
<clipPath id="clip0_2522_505">
<rect width="95" height="73" fill="white"/>
</clipPath>
</defs>
</svg>
