<svg width="96" height="73" viewBox="0 0 96 73" fill="none" xmlns="http://www.w3.org/2000/svg">
<g clip-path="url(#clip0_2522_577)">
<path d="M93.1328 31.8151C93.1593 31.3906 92.2076 31.1834 92.2508 30.8119C92.2939 30.4418 93.2538 30.5187 94.2686 29.8502C94.4516 29.7296 95.6048 28.9699 95.4923 28.3999C95.2792 27.3194 90.7065 27.8709 90.2615 26.299C90.1638 25.9541 90.2545 25.4702 89.9852 24.386C89.8781 23.9547 89.7891 23.7309 89.6074 23.6602C89.3496 23.56 89.1304 23.8557 88.4976 24.2927C87.5486 24.9481 87.3751 24.7431 86.6941 25.3206C86.1886 25.7492 86.0187 26.0873 85.7986 26.0192C85.4872 25.9228 85.6263 25.1835 85.2697 25.0031C84.9058 24.8189 84.2712 25.341 83.8824 25.7937C83.1528 26.6432 83.0771 27.4947 82.8346 28.2732C82.571 29.1191 81.987 30.2744 80.5382 31.4642L67.313 41.5375C70.0971 39.5208 77.8826 34.1028 80.916 32.19C81.7917 31.6378 82.7113 31.1002 83.7153 31.3474C84.6819 31.5855 85.6103 32.5223 87.1687 33.1437C87.3507 33.2163 87.8598 33.4116 88.089 33.1839C88.2785 32.9956 88.1041 32.6897 88.2785 32.5112C88.5125 32.2718 89.0162 32.6277 89.8417 32.7497C90.4238 32.8356 90.87 32.7615 91.2538 32.6978C91.3695 32.6786 93.0975 32.3802 93.1328 31.8151Z" fill="#F2F2F2"/>
<path d="M70.7869 26.0931C70.5955 25.957 70.2237 26.386 70.0619 26.2566C69.9008 26.1277 70.2138 25.6569 70.193 24.9429C70.1893 24.8141 70.1656 24.0026 69.8658 23.8959C69.2975 23.6936 68.2368 26.2011 67.3711 25.9761C67.1811 25.9268 66.9804 25.7406 66.3941 25.566C66.1609 25.4966 66.0302 25.4777 65.9447 25.5507C65.8233 25.6541 65.8987 25.8521 65.9211 26.3031C65.9547 26.9796 65.8085 27.0095 65.8829 27.5259C65.9381 27.9092 66.0477 28.094 65.9522 28.1873C65.8171 28.3195 65.5105 28.0347 65.323 28.1658C65.1316 28.2996 65.1934 28.7761 65.2935 29.1064C65.4815 29.7262 65.8591 30.0107 66.1542 30.3599C66.475 30.7394 66.8484 31.3727 66.9884 32.46L67.8974 42.1584C67.7548 40.1468 67.4599 34.5851 67.4378 32.4754C67.4315 31.8663 67.4447 31.2389 67.8504 30.7946C68.2409 30.3669 68.9482 30.1604 69.6893 29.5394C69.7759 29.4668 70.0144 29.2617 69.9737 29.0783C69.9401 28.9267 69.7463 28.928 69.7129 28.7869C69.668 28.5977 69.9804 28.4417 70.2757 28.0529C70.484 27.7788 70.578 27.5282 70.6588 27.3128C70.6832 27.2478 71.0418 26.2742 70.7869 26.0931Z" fill="#F2F2F2"/>
<path d="M74.0107 29.718L74.5991 28.5609L74.705 28.5171C75.1948 28.3147 75.5596 28.0357 75.7896 27.6875C75.8262 27.6322 75.8601 27.5749 75.8946 27.5165C76.0314 27.2853 76.2014 26.9977 76.5529 26.7724C76.7493 26.6471 77.2424 26.3846 77.5372 26.6721C77.6172 26.7485 77.6563 26.839 77.6745 26.9253C77.6901 26.9182 77.7059 26.9112 77.723 26.9036C77.9323 26.8135 78.0593 26.8016 78.1815 26.7901C78.2755 26.7812 78.3725 26.7722 78.5525 26.7152C78.6315 26.6903 78.6967 26.6653 78.7515 26.6444C78.9177 26.5814 79.1256 26.5131 79.3198 26.656C79.5223 26.8164 79.5133 27.076 79.5075 27.2479C79.4973 27.5547 79.4551 27.7509 79.4272 27.881C79.4169 27.9285 79.4055 27.9821 79.4051 28.0009C79.4047 28.153 80.0164 28.4489 80.246 28.5616C80.7629 28.8131 81.2102 29.0307 81.1752 29.4554C81.1504 29.7593 80.8728 29.9858 80.3272 30.1459C80.1574 30.1957 79.9999 30.2132 79.8661 30.2194C79.9093 30.3175 79.9289 30.4345 79.8835 30.5635C79.7754 30.8687 79.3906 30.9764 78.7393 30.8847C78.5773 30.8623 78.3597 30.8314 78.106 30.7098C77.9865 30.6524 77.8873 30.5881 77.8033 30.5317C77.7689 30.5803 77.7224 30.6263 77.6571 30.661C77.465 30.7635 77.2371 30.7144 76.9825 30.5046C76.6995 30.2781 76.4961 30.0462 76.3165 29.842C76.1595 29.6639 76.0239 29.5111 75.8921 29.4296C75.6457 29.282 75.3376 29.3486 74.9603 29.4509L74.0107 29.718Z" fill="#F2F2F2"/>
<path d="M78.7324 23.702L77.5135 23.4L77.4462 23.3039C77.1348 22.8595 76.7844 22.5611 76.4042 22.4165C76.3437 22.3935 76.2822 22.3738 76.2195 22.3536C75.971 22.2738 75.6621 22.1747 75.3647 21.8761C75.199 21.7091 74.8312 21.2766 75.0222 20.9053C75.0726 20.8049 75.1463 20.7424 75.2214 20.7021C75.2109 20.6881 75.2005 20.6738 75.1891 20.6585C75.0527 20.4694 75.0095 20.344 74.9679 20.2232C74.9358 20.1303 74.9029 20.0345 74.8046 19.8667C74.7615 19.793 74.7219 19.7334 74.6886 19.6832C74.5882 19.531 74.4723 19.3379 74.5552 19.1051C74.6521 18.8595 74.8944 18.8027 75.0548 18.7649C75.3409 18.6975 75.533 18.6904 75.6604 18.6857C75.7069 18.6841 75.7593 18.682 75.7768 18.6776C75.9176 18.6395 76.0359 17.9453 76.0819 17.6843C76.1833 17.0973 76.271 16.5894 76.6724 16.5171C76.9597 16.4651 77.2394 16.6886 77.5258 17.2002C77.6149 17.3595 77.671 17.5145 77.7108 17.6483C77.7905 17.5797 77.8936 17.5302 78.0244 17.5435C78.334 17.5754 78.5311 17.9375 78.6115 18.6201C78.632 18.7897 78.6586 19.0178 78.6105 19.3055C78.5878 19.4409 78.5535 19.5577 78.5227 19.657C78.5763 19.6795 78.6306 19.7148 78.6793 19.7722C78.8227 19.9405 78.8352 20.1837 78.7058 20.4946C78.5682 20.8385 78.4054 21.1032 78.2622 21.3368C78.1374 21.5408 78.0305 21.7169 77.9887 21.8709C77.9147 22.1578 78.0544 22.4527 78.2447 22.8087L78.7324 23.702Z" fill="#F2F2F2"/>
<path d="M80.2709 20.154L80.8592 18.9969L80.9651 18.9531C81.4549 18.7507 81.8197 18.4717 82.0498 18.1235C82.0863 18.0682 82.1202 18.0109 82.1547 17.9526C82.2915 17.7213 82.4615 17.4338 82.813 17.2085C83.0094 17.0832 83.5025 16.8206 83.7973 17.1081C83.8773 17.1846 83.9164 17.2751 83.9347 17.3613C83.9502 17.3542 83.9661 17.3473 83.9831 17.3396C84.1925 17.2496 84.3194 17.2376 84.4417 17.2261C84.5356 17.2173 84.6326 17.2082 84.8127 17.1513C84.8916 17.1263 84.9568 17.1014 85.0117 17.0804C85.1779 17.0174 85.3857 16.9491 85.5799 17.0921C85.7824 17.2524 85.7735 17.5121 85.7676 17.684C85.7574 17.9907 85.7153 18.1869 85.6873 18.317C85.677 18.3645 85.6656 18.4181 85.6653 18.4369C85.6648 18.589 86.2765 18.8849 86.5061 18.9976C87.023 19.2491 87.4703 19.4668 87.4353 19.8914C87.4105 20.1954 87.133 20.4218 86.5874 20.582C86.4175 20.6317 86.26 20.6492 86.1262 20.6555C86.1695 20.7535 86.1891 20.8705 86.1436 20.9995C86.0356 21.3048 85.6508 21.4124 84.9994 21.3207C84.8374 21.2983 84.6198 21.2674 84.3661 21.1458C84.2467 21.0884 84.1474 21.0241 84.0634 20.9677C84.029 21.0163 83.9826 21.0623 83.9172 21.097C83.7252 21.1995 83.4972 21.1505 83.2426 20.9406C82.9596 20.7141 82.7562 20.4822 82.5766 20.278C82.4196 20.1 82.284 19.9471 82.1523 19.8657C81.9058 19.718 81.5978 19.7846 81.2204 19.887L80.2709 20.154Z" fill="#F2F2F2"/>
<path d="M67.6683 41.766L67.5455 41.4706L67.2748 41.3209C67.2868 41.2936 67.3099 41.2278 67.3467 41.1254C67.5489 40.5644 68.1636 38.8568 69.3853 36.3493C70.2381 34.5989 71.207 32.8654 72.2655 31.196C73.3256 29.5241 74.2207 28.3246 74.9399 27.3605C75.4825 26.6334 76.011 25.9495 76.5263 25.2836C77.9023 23.5041 79.2019 21.8231 80.3895 19.7821C80.6549 19.3266 81.2068 18.3783 81.3332 17.0388C81.4064 16.2619 81.3264 15.4682 81.0948 14.6801L81.6835 14.4907C81.9388 15.3612 82.0269 16.24 81.9456 17.1026C81.8055 18.5878 81.2041 19.6212 80.9152 20.1177C79.7065 22.1947 78.3942 23.8917 77.0048 25.6883C76.4918 26.3519 75.9653 27.0327 75.425 27.7569C74.7124 28.7121 73.8251 29.9012 72.7787 31.5517C71.7327 33.2009 70.7757 34.9133 69.9334 36.6415C68.7273 39.1175 68.1219 40.7997 67.923 41.3524C67.8166 41.6474 67.7943 41.7092 67.6683 41.766Z" fill="#F2F2F2"/>
<path d="M79.6109 14.8571C79.5901 14.8422 79.5693 14.8265 79.549 14.8097C79.1326 14.4754 78.9094 13.9176 78.8854 13.1518C78.8747 12.792 78.9679 12.457 79.1538 11.7891C79.1823 11.686 79.3325 11.1671 79.6383 10.5241C79.838 10.1038 79.9494 9.94811 80.1147 9.85852C80.2986 9.75853 80.501 9.74199 80.6963 9.77298C80.7232 9.71751 80.7627 9.66883 80.8188 9.63049C81.0503 9.47095 81.2614 9.6649 81.3767 9.76812C81.4342 9.82155 81.5057 9.88878 81.5935 9.94488C81.7313 10.0337 81.8302 10.0436 81.9795 10.0591C82.1225 10.0739 82.3002 10.0923 82.5187 10.1887C82.9506 10.377 83.1939 10.716 83.2741 10.8276C83.698 11.4127 83.6763 12.0535 83.6511 12.7954C83.6457 12.9439 83.6129 13.4754 83.4155 14.0947C83.2731 14.5415 83.1501 14.6973 83.0385 14.7987C82.8099 15.0077 82.5673 15.0472 81.9827 15.0994C81.3717 15.1547 81.0653 15.1821 80.8298 15.1635C80.2821 15.1193 79.9382 15.0916 79.6109 14.8571Z" fill="#F2F2F2"/>
<path d="M77.1845 0H42.6817C41.416 0 40.3868 1.07692 40.3868 2.4013V39.6404C40.3868 40.9648 41.416 42.0417 42.6817 42.0417H77.1845C78.4502 42.0417 79.4794 40.9648 79.4794 39.6404V2.4013C79.4794 1.07692 78.4502 0 77.1845 0ZM79.2381 39.6404C79.2381 40.8272 78.3187 41.7892 77.1845 41.7892H42.6817C41.5475 41.7892 40.6281 40.8272 40.6281 39.6404V2.4013C40.6281 1.21455 41.5475 0.252503 42.6817 0.252503H60.9577C71.0537 0.252503 79.2381 8.81644 79.2381 19.3806V39.6404Z" fill="#506DB8"/>
<path d="M39.6566 27.9879C38.4473 28.3299 37.6357 29.2601 37.8438 30.0653C38.052 30.8706 39.2009 31.2459 40.4106 30.9036C40.8956 30.7738 41.3439 30.5243 41.7179 30.1761L46.8242 28.6592L46.0929 26.167L41.1365 27.927C40.6456 27.8233 40.1382 27.8442 39.6566 27.9879Z" fill="#FFB6B6"/>
<path d="M61.0553 20.5112C61.0553 20.5112 62.497 22.7241 59.2478 24.3935C55.9987 26.0629 49.9926 28.4454 49.9926 28.4454L41.6999 30.4558L40.4476 27.5829L50.2877 24.7776L58.3062 20.0952L61.0553 20.5112Z" fill="#506DB8"/>
<path d="M60.0906 14.6208C60.0538 15.6698 60.7755 16.915 61.5385 16.9406C62.4564 16.9713 66.7959 17.2947 66.9354 16.9181C67.904 14.3033 63.3425 8.87918 62.3143 8.7227C61.7617 8.63862 61.1001 9.46875 60.8457 10.154C60.4892 11.1144 61.0153 11.5673 60.7184 12.8611C60.4919 13.8476 60.1164 13.8875 60.0906 14.6208Z" fill="#082777"/>
<path d="M52.5371 55.9722L49.4915 56.7025L52.5518 66.2042L54.6156 65.7095L52.5371 55.9722Z" fill="#FFB6B6"/>
<path d="M51.4488 63.2409L52.6268 63.4217L52.8084 64.0819C52.8084 64.0819 52.8476 63.2421 54.1486 62.6665L54.4868 63.2575C54.4868 63.2575 55.1832 63.7264 55.4083 64.8887L55.9081 68.0324L54.8853 68.3163L54.1348 66.251C54.1348 66.251 53.7219 65.856 53.065 68.528C53.065 68.528 52.799 69.426 50.386 69.3219C50.0543 69.3077 49.7625 69.0761 49.674 68.7414C49.6251 68.5566 49.6467 68.3656 49.8504 68.2376C50.3689 67.9119 50.9718 67.9424 51.2044 67.3634C51.437 66.7844 51.4488 63.2409 51.4488 63.2409Z" fill="#082777"/>
<path d="M59.1538 60.292L56.4341 60.2217L56.8148 70.227L58.9318 70.2665L59.1538 60.292Z" fill="#FFB6B6"/>
<path d="M56.4258 67.0732L57.5275 67.5453L57.5519 68.2319C57.5519 68.2319 57.7832 67.4266 59.1783 67.1956L59.3706 67.8543C59.3706 67.8543 59.9388 68.4848 59.8899 69.6696L59.652 72.8469L58.594 72.8649L58.3405 70.6712C58.3405 70.6712 58.0306 70.1839 56.7785 72.612C56.7785 72.612 56.3138 73.4166 53.9956 72.708C53.677 72.6106 53.447 72.3124 53.4381 71.9652C53.4331 71.7735 53.498 71.5936 53.7251 71.5207C54.3033 71.335 54.8815 71.5165 55.2404 71.013C55.5993 70.5096 56.4258 67.0732 56.4258 67.0732Z" fill="#082777"/>
<path d="M64.766 49.3637L50.3821 48.1991L54.4299 30.8356L64.1144 29.3755L64.766 49.3637Z" fill="#082777"/>
<path d="M62.7823 17.4473L65.8129 15.7578L68.2603 18.7815L63.3424 35.2749L54.3464 31.1068L61.1791 18.8838L62.7823 17.4473Z" fill="#4B93E7"/>
<path d="M63.1663 32.2966C63.1663 32.2966 64.1314 37.5036 61.1429 40.21L60.2282 43.2532L59.2404 48.8703L59.3298 63.3781L55.7101 62.9994L54.2622 49.1122L54.245 42.2006L48.9013 46.989L54.4939 58.4828L49.9368 60.5708L44.3711 46.7198C43.9844 45.8761 44.0875 44.876 44.6373 44.138L54.3463 31.1064L63.1663 32.2966Z" fill="#082777"/>
<path d="M66.9186 17.1235L60.9764 22.9242C59.5702 34.865 60.3378 45.8295 64.3841 55.3217L74.3693 50.4792C66.1356 47.8661 66.9431 33.5181 68.5407 18.1446L66.9186 17.1235Z" fill="#506DB8"/>
<path d="M61.7941 18.9028L62.7082 17.4229L57.6525 20.533L53.6547 32.1256L61.0294 22.4956L61.7941 18.9028Z" fill="#506DB8"/>
<path d="M74.4407 40.7081C74.7892 41.9672 75.6925 42.7996 76.4582 42.5674C77.2239 42.3353 77.562 41.1265 77.2133 39.8671C77.0806 39.362 76.8342 38.8975 76.4947 38.5124L74.9539 33.1973L72.5856 34.007L74.356 39.1609C74.2658 39.6763 74.2948 40.2068 74.4407 40.7081Z" fill="#FFB6B6"/>
<path d="M66.6877 18.2686C66.6877 18.2686 68.7603 16.6971 70.4484 20.0475C72.1364 23.3979 74.5851 29.6114 74.5851 29.6114L76.7438 38.2274L74.0354 39.6198L71.0728 29.4082L66.3693 21.1559L66.6877 18.2686Z" fill="#506DB8"/>
<path d="M64.2233 15.6214C66.0821 15.6214 67.5891 14.0446 67.5891 12.0995C67.5891 10.1544 66.0821 8.57764 64.2233 8.57764C62.3644 8.57764 60.8575 10.1544 60.8575 12.0995C60.8575 14.0446 62.3644 15.6214 64.2233 15.6214Z" fill="#FFB6B6"/>
<path d="M64.2343 10.7257C64.0449 10.7062 63.9475 10.9158 63.2239 11.2083C62.9676 11.3119 62.8364 11.3639 62.6858 11.374C62.2281 11.4048 61.8724 11.1403 61.6347 10.9635C61.2483 10.6762 60.9994 10.4911 60.9508 10.1952C60.8873 9.80901 61.3051 9.37764 62.1432 8.53068C62.5537 8.11589 62.8038 7.86535 63.2054 7.56715C63.8791 7.06699 64.2159 6.81691 64.6881 6.76783C65.3135 6.70285 65.7889 7.01511 66.475 7.4657C66.6603 7.58743 66.9275 7.64597 67.2108 7.66827C68.1382 7.7413 68.9332 8.38808 69.1854 9.32473C69.2047 9.39629 69.2209 9.46107 69.233 9.51653C69.7309 11.7908 69.592 14.1563 68.9107 16.3778C68.8923 16.4376 68.877 16.4933 68.8651 16.5441C68.5486 17.897 64.201 18.4244 63.6925 17.2806C63.3723 16.5604 64.8688 15.8398 65.0922 13.6922C65.2478 12.1972 64.7069 10.7745 64.2343 10.7257Z" fill="#082777"/>
<path d="M51.1252 11.521H14.6566V11.7166H51.1252V11.521Z" fill="#E6E6E6"/>
<path d="M45.9767 8.66058H19.805C19.3927 8.66058 19.0573 8.30957 19.0573 7.87814C19.0573 7.44671 19.3927 7.0957 19.805 7.0957H45.9767C46.389 7.0957 46.7245 7.44671 46.7245 7.87814C46.7245 8.30957 46.389 8.66058 45.9767 8.66058Z" fill="#E6E6E6"/>
<path d="M14.7374 13.0775C15.6037 13.0775 16.3059 12.3426 16.3059 11.4362C16.3059 10.5297 15.6037 9.79492 14.7374 9.79492C13.8711 9.79492 13.1689 10.5297 13.1689 11.4362C13.1689 12.3426 13.8711 13.0775 14.7374 13.0775Z" fill="#E6E6E6"/>
<path d="M19.5636 9.5423C20.4299 9.5423 21.1322 8.80748 21.1322 7.90103C21.1322 6.99459 20.4299 6.25977 19.5636 6.25977C18.6974 6.25977 17.9951 6.99459 17.9951 7.90103C17.9951 8.80748 18.6974 9.5423 19.5636 9.5423Z" fill="#E6E6E6"/>
<path d="M38.8183 29.8271H2.34967V30.0228H38.8183V29.8271Z" fill="#506DB8"/>
<path d="M33.6698 26.9672H7.49813C7.08582 26.9672 6.75037 26.6162 6.75037 26.1848C6.75037 25.7534 7.08582 25.4023 7.49813 25.4023H33.6698C34.0821 25.4023 34.4176 25.7534 34.4176 26.1848C34.4176 26.6162 34.0821 26.9672 33.6698 26.9672Z" fill="#4B93E7"/>
<path d="M2.06853 31.3841C2.93481 31.3841 3.63706 30.6493 3.63706 29.7428C3.63706 28.8364 2.93481 28.1016 2.06853 28.1016C1.20226 28.1016 0.5 28.8364 0.5 29.7428C0.5 30.6493 1.20226 31.3841 2.06853 31.3841Z" fill="#4B93E7"/>
<path d="M6.89476 27.8489C7.76104 27.8489 8.46329 27.1141 8.46329 26.2077C8.46329 25.3012 7.76104 24.5664 6.89476 24.5664C6.02849 24.5664 5.32623 25.3012 5.32623 26.2077C5.32623 27.1141 6.02849 27.8489 6.89476 27.8489Z" fill="#4B93E7"/>
<path d="M43.1619 50.0273H6.6933V50.223H43.1619V50.0273Z" fill="#E6E6E6"/>
<path d="M38.0135 47.1674H11.8418C11.4294 47.1674 11.094 46.8164 11.094 46.385C11.094 45.9535 11.4294 45.6025 11.8418 45.6025H38.0135C38.4258 45.6025 38.7612 45.9535 38.7612 46.385C38.7612 46.8164 38.4258 47.1674 38.0135 47.1674Z" fill="#E6E6E6"/>
<path d="M11.1177 47.9227C11.984 47.9227 12.6863 47.1879 12.6863 46.2814C12.6863 45.375 11.984 44.6401 11.1177 44.6401C10.2514 44.6401 9.54919 45.375 9.54919 46.2814C9.54919 47.1879 10.2514 47.9227 11.1177 47.9227Z" fill="#E6E6E6"/>
<path d="M6.41216 51.7103C7.27844 51.7103 7.98069 50.9754 7.98069 50.069C7.98069 49.1626 7.27844 48.4277 6.41216 48.4277C5.54588 48.4277 4.84363 49.1626 4.84363 50.069C4.84363 50.9754 5.54588 51.7103 6.41216 51.7103Z" fill="#E6E6E6"/>
</g>
<defs>
<clipPath id="clip0_2522_577">
<rect width="95" height="73" fill="white" transform="translate(0.5)"/>
</clipPath>
</defs>
</svg>
